%TF.GenerationSoftware,KiCad,Pcbnew,8.0.4+dfsg-1*%
%TF.CreationDate,2024-12-23T16:35:55+01:00*%
%TF.ProjectId,CMIO-DSI-Adapter,434d494f-2d44-4534-992d-416461707465,rev?*%
%TF.SameCoordinates,Original*%
%TF.FileFunction,Copper,L2,Bot*%
%TF.FilePolarity,Positive*%
%FSLAX46Y46*%
G04 Gerber Fmt 4.6, Leading zero omitted, Abs format (unit mm)*
G04 Created by KiCad (PCBNEW 8.0.4+dfsg-1) date 2024-12-23 16:35:55*
%MOMM*%
%LPD*%
G01*
G04 APERTURE LIST*
%TA.AperFunction,ComponentPad*%
%ADD10O,1.700000X1.700000*%
%TD*%
%TA.AperFunction,ComponentPad*%
%ADD11R,1.700000X1.700000*%
%TD*%
%TA.AperFunction,ViaPad*%
%ADD12C,0.600000*%
%TD*%
%TA.AperFunction,Conductor*%
%ADD13C,0.200000*%
%TD*%
G04 APERTURE END LIST*
D10*
%TO.P,J3,6,Pin_6*%
%TO.N,/SCL*%
X31181809Y-29250000D03*
%TO.P,J3,5,Pin_5*%
%TO.N,/SDA*%
X31181809Y-31790000D03*
%TO.P,J3,4,Pin_4*%
%TO.N,/RESET*%
X31181809Y-34330000D03*
%TO.P,J3,3,Pin_3*%
%TO.N,/LEDA*%
X31181809Y-36870000D03*
%TO.P,J3,2,Pin_2*%
%TO.N,/VCC*%
X31181809Y-39410000D03*
D11*
%TO.P,J3,1,Pin_1*%
%TO.N,/GND*%
X31181809Y-41950000D03*
%TD*%
D12*
%TO.N,/GND*%
X36250000Y-15000000D03*
X38000000Y-15000000D03*
X39750000Y-15000000D03*
X41500000Y-15000000D03*
X41500000Y-36000000D03*
X39750000Y-36000000D03*
X38000000Y-36000000D03*
X36250000Y-37750000D03*
X34750000Y-39500000D03*
X33000000Y-41250000D03*
X22250000Y-39500000D03*
X24000000Y-41250000D03*
X20500000Y-37750000D03*
X18750000Y-36000000D03*
X25000000Y-19250000D03*
X15250000Y-21750000D03*
X15250000Y-27000000D03*
X15250000Y-20250000D03*
X15250000Y-30500000D03*
X15250000Y-16750000D03*
X15250000Y-18500000D03*
X15250000Y-23500000D03*
X15250000Y-36000000D03*
X15250000Y-37750000D03*
X15250000Y-39500000D03*
X15250000Y-41250000D03*
X15250000Y-15000000D03*
X15250000Y-34250000D03*
X15250000Y-25250000D03*
X15250000Y-28750000D03*
X15250000Y-32500000D03*
X43250000Y-23500000D03*
X43250000Y-28750000D03*
X43250000Y-22000000D03*
X43250000Y-32250000D03*
X43250000Y-18500000D03*
X43250000Y-15000000D03*
X43250000Y-20250000D03*
X43250000Y-25250000D03*
X43250000Y-37750000D03*
X43250000Y-39500000D03*
X43250000Y-41250000D03*
X43250000Y-16750000D03*
X43250000Y-36000000D03*
X43250000Y-27000000D03*
X43250000Y-30500000D03*
X43250000Y-34250000D03*
X34750000Y-13250000D03*
X29500000Y-13250000D03*
X36250000Y-13250000D03*
X26000000Y-13250000D03*
X39750000Y-13250000D03*
X43250000Y-13250000D03*
X38000000Y-13250000D03*
X33000000Y-13250000D03*
X20500000Y-13250000D03*
X18750000Y-13250000D03*
X17000000Y-13250000D03*
X15250000Y-13250000D03*
X41500000Y-13250000D03*
X22250000Y-13250000D03*
X31250000Y-13250000D03*
X27750000Y-13250000D03*
X24000000Y-13250000D03*
X41500000Y-43000000D03*
X39750000Y-43000000D03*
X38000000Y-43000000D03*
X36250000Y-43000000D03*
X43250000Y-43000000D03*
X31250000Y-43000000D03*
X29500000Y-43000000D03*
X27750000Y-43000000D03*
X26000000Y-43000000D03*
X33000000Y-43000000D03*
X34750000Y-43000000D03*
X24000000Y-43000000D03*
X22250000Y-43000000D03*
X20500000Y-43000000D03*
X18750000Y-43000000D03*
X17000000Y-43000000D03*
X15250000Y-43000000D03*
X24934358Y-21043762D03*
X26750000Y-19250000D03*
X31250000Y-26750000D03*
X32300000Y-24700000D03*
X33700000Y-24750000D03*
X33000000Y-27500000D03*
%TO.N,/D0P*%
X25600000Y-20600000D03*
X32081288Y-26400521D03*
%TO.N,/D0N*%
X32500000Y-25600000D03*
%TO.N,/CAM_GPIO0*%
X23490904Y-33509095D03*
%TO.N,/CAM_GPIO1*%
X22449997Y-33499999D03*
X22293936Y-28025000D03*
%TO.N,/CAM_GPIO0*%
X23293936Y-27499999D03*
%TO.N,/D0N*%
X25600000Y-19750000D03*
%TD*%
D13*
%TO.N,/CAM_GPIO0*%
X23293936Y-27499999D02*
X23293936Y-33312127D01*
X23293936Y-33312127D02*
X23490904Y-33509095D01*
%TO.N,/D0N*%
X32500000Y-25600000D02*
X32200008Y-25600000D01*
X32200008Y-25600000D02*
X26600007Y-19999999D01*
X25849999Y-19999999D02*
X25600000Y-19750000D01*
X26600007Y-19999999D02*
X25849999Y-19999999D01*
%TO.N,/D0P*%
X25600000Y-20600000D02*
X25799999Y-20400001D01*
X25799999Y-20400001D02*
X26084603Y-20400001D01*
X32081288Y-26117678D02*
X32081288Y-26400521D01*
X26084603Y-20400001D02*
X26084605Y-20399999D01*
X26084605Y-20399999D02*
X26363609Y-20399999D01*
X26363609Y-20399999D02*
X32081288Y-26117678D01*
%TO.N,/CAM_GPIO1*%
X22493936Y-33499999D02*
X22293936Y-33299999D01*
X22293936Y-33299999D02*
X22293936Y-28025000D01*
%TD*%
%TA.AperFunction,Conductor*%
%TO.N,/GND*%
G36*
X43842539Y-13020185D02*
G01*
X43888294Y-13072989D01*
X43899500Y-13124500D01*
X43899500Y-43075500D01*
X43879815Y-43142539D01*
X43827011Y-43188294D01*
X43775500Y-43199500D01*
X32595045Y-43199500D01*
X32528006Y-43179815D01*
X32482251Y-43127011D01*
X32472307Y-43057853D01*
X32478863Y-43032167D01*
X32525405Y-42907379D01*
X32525407Y-42907372D01*
X32531808Y-42847844D01*
X32531809Y-42847827D01*
X32531809Y-42200000D01*
X31614821Y-42200000D01*
X31647734Y-42142993D01*
X31681809Y-42015826D01*
X31681809Y-41884174D01*
X31647734Y-41757007D01*
X31614821Y-41700000D01*
X32531809Y-41700000D01*
X32531809Y-41052172D01*
X32531808Y-41052155D01*
X32525407Y-40992627D01*
X32525405Y-40992620D01*
X32475163Y-40857913D01*
X32475159Y-40857906D01*
X32388999Y-40742812D01*
X32388996Y-40742809D01*
X32273902Y-40656649D01*
X32273897Y-40656646D01*
X32142337Y-40607577D01*
X32086404Y-40565705D01*
X32061987Y-40500241D01*
X32076839Y-40431968D01*
X32097984Y-40403720D01*
X32220304Y-40281401D01*
X32355844Y-40087830D01*
X32455712Y-39873663D01*
X32516872Y-39645408D01*
X32537468Y-39410000D01*
X32516872Y-39174592D01*
X32455712Y-38946337D01*
X32355844Y-38732171D01*
X32220304Y-38538599D01*
X32220303Y-38538597D01*
X32053211Y-38371506D01*
X32053205Y-38371501D01*
X31867651Y-38241575D01*
X31824026Y-38186998D01*
X31816832Y-38117500D01*
X31848355Y-38055145D01*
X31867651Y-38038425D01*
X31889835Y-38022891D01*
X32053210Y-37908495D01*
X32220304Y-37741401D01*
X32355844Y-37547830D01*
X32455712Y-37333663D01*
X32516872Y-37105408D01*
X32537468Y-36870000D01*
X32516872Y-36634592D01*
X32455712Y-36406337D01*
X32355844Y-36192171D01*
X32220304Y-35998599D01*
X32220303Y-35998597D01*
X32053211Y-35831506D01*
X32053205Y-35831501D01*
X31867651Y-35701575D01*
X31824026Y-35646998D01*
X31816832Y-35577500D01*
X31848355Y-35515145D01*
X31867651Y-35498425D01*
X31889835Y-35482891D01*
X32053210Y-35368495D01*
X32220304Y-35201401D01*
X32355844Y-35007830D01*
X32455712Y-34793663D01*
X32516872Y-34565408D01*
X32537468Y-34330000D01*
X32516872Y-34094592D01*
X32455712Y-33866337D01*
X32355844Y-33652171D01*
X32249293Y-33499999D01*
X32220303Y-33458597D01*
X32053211Y-33291506D01*
X32053205Y-33291501D01*
X31867651Y-33161575D01*
X31824026Y-33106998D01*
X31816832Y-33037500D01*
X31848355Y-32975145D01*
X31867651Y-32958425D01*
X31980683Y-32879279D01*
X32053210Y-32828495D01*
X32220304Y-32661401D01*
X32355844Y-32467830D01*
X32455712Y-32253663D01*
X32516872Y-32025408D01*
X32537468Y-31790000D01*
X32516872Y-31554592D01*
X32455712Y-31326337D01*
X32355844Y-31112171D01*
X32220304Y-30918599D01*
X32220303Y-30918597D01*
X32053211Y-30751506D01*
X32053205Y-30751501D01*
X31867651Y-30621575D01*
X31824026Y-30566998D01*
X31816832Y-30497500D01*
X31848355Y-30435145D01*
X31867651Y-30418425D01*
X31889835Y-30402891D01*
X32053210Y-30288495D01*
X32220304Y-30121401D01*
X32355844Y-29927830D01*
X32455712Y-29713663D01*
X32516872Y-29485408D01*
X32537468Y-29250000D01*
X32516872Y-29014592D01*
X32455712Y-28786337D01*
X32355844Y-28572171D01*
X32324400Y-28527263D01*
X32220303Y-28378597D01*
X32053211Y-28211506D01*
X32053204Y-28211501D01*
X32042854Y-28204254D01*
X32014330Y-28184281D01*
X31859643Y-28075967D01*
X31859639Y-28075965D01*
X31859637Y-28075964D01*
X31645472Y-27976097D01*
X31645468Y-27976096D01*
X31645464Y-27976094D01*
X31417222Y-27914938D01*
X31417212Y-27914936D01*
X31181810Y-27894341D01*
X31181808Y-27894341D01*
X30946405Y-27914936D01*
X30946395Y-27914938D01*
X30718153Y-27976094D01*
X30718144Y-27976098D01*
X30503980Y-28075964D01*
X30503978Y-28075965D01*
X30310406Y-28211505D01*
X30143314Y-28378597D01*
X30007774Y-28572169D01*
X30007773Y-28572171D01*
X29907907Y-28786335D01*
X29907903Y-28786344D01*
X29846747Y-29014586D01*
X29846745Y-29014596D01*
X29826150Y-29249999D01*
X29826150Y-29250000D01*
X29846745Y-29485403D01*
X29846747Y-29485413D01*
X29907903Y-29713655D01*
X29907905Y-29713659D01*
X29907906Y-29713663D01*
X30007774Y-29927830D01*
X30007776Y-29927834D01*
X30143310Y-30121395D01*
X30143315Y-30121402D01*
X30310406Y-30288493D01*
X30310412Y-30288498D01*
X30495967Y-30418425D01*
X30539592Y-30473002D01*
X30546786Y-30542500D01*
X30515263Y-30604855D01*
X30495967Y-30621575D01*
X30310406Y-30751505D01*
X30143314Y-30918597D01*
X30007774Y-31112169D01*
X30007773Y-31112171D01*
X29907907Y-31326335D01*
X29907903Y-31326344D01*
X29846747Y-31554586D01*
X29846745Y-31554596D01*
X29826150Y-31789999D01*
X29826150Y-31790000D01*
X29846745Y-32025403D01*
X29846747Y-32025413D01*
X29907903Y-32253655D01*
X29907905Y-32253659D01*
X29907906Y-32253663D01*
X30007774Y-32467830D01*
X30007776Y-32467834D01*
X30143310Y-32661395D01*
X30143315Y-32661402D01*
X30310406Y-32828493D01*
X30310412Y-32828498D01*
X30495967Y-32958425D01*
X30539592Y-33013002D01*
X30546786Y-33082500D01*
X30515263Y-33144855D01*
X30495967Y-33161575D01*
X30310406Y-33291505D01*
X30143314Y-33458597D01*
X30007774Y-33652169D01*
X30007773Y-33652171D01*
X29907907Y-33866335D01*
X29907903Y-33866344D01*
X29846747Y-34094586D01*
X29846745Y-34094596D01*
X29826150Y-34329999D01*
X29826150Y-34330000D01*
X29846745Y-34565403D01*
X29846747Y-34565413D01*
X29907903Y-34793655D01*
X29907905Y-34793659D01*
X29907906Y-34793663D01*
X30007774Y-35007830D01*
X30007776Y-35007834D01*
X30143310Y-35201395D01*
X30143315Y-35201402D01*
X30310406Y-35368493D01*
X30310412Y-35368498D01*
X30495967Y-35498425D01*
X30539592Y-35553002D01*
X30546786Y-35622500D01*
X30515263Y-35684855D01*
X30495967Y-35701575D01*
X30310406Y-35831505D01*
X30143314Y-35998597D01*
X30007774Y-36192169D01*
X30007773Y-36192171D01*
X29907907Y-36406335D01*
X29907903Y-36406344D01*
X29846747Y-36634586D01*
X29846745Y-36634596D01*
X29826150Y-36869999D01*
X29826150Y-36870000D01*
X29846745Y-37105403D01*
X29846747Y-37105413D01*
X29907903Y-37333655D01*
X29907905Y-37333659D01*
X29907906Y-37333663D01*
X30007774Y-37547830D01*
X30007776Y-37547834D01*
X30143310Y-37741395D01*
X30143315Y-37741402D01*
X30310406Y-37908493D01*
X30310412Y-37908498D01*
X30495967Y-38038425D01*
X30539592Y-38093002D01*
X30546786Y-38162500D01*
X30515263Y-38224855D01*
X30495967Y-38241575D01*
X30310406Y-38371505D01*
X30143314Y-38538597D01*
X30007774Y-38732169D01*
X30007773Y-38732171D01*
X29907907Y-38946335D01*
X29907903Y-38946344D01*
X29846747Y-39174586D01*
X29846745Y-39174596D01*
X29826150Y-39409999D01*
X29826150Y-39410000D01*
X29846745Y-39645403D01*
X29846747Y-39645413D01*
X29907903Y-39873655D01*
X29907905Y-39873659D01*
X29907906Y-39873663D01*
X30007774Y-40087830D01*
X30007776Y-40087834D01*
X30116090Y-40242521D01*
X30143310Y-40281396D01*
X30143315Y-40281402D01*
X30265627Y-40403714D01*
X30299112Y-40465037D01*
X30294128Y-40534729D01*
X30252256Y-40590662D01*
X30221280Y-40607577D01*
X30089721Y-40656646D01*
X30089715Y-40656649D01*
X29974621Y-40742809D01*
X29974618Y-40742812D01*
X29888458Y-40857906D01*
X29888454Y-40857913D01*
X29838212Y-40992620D01*
X29838210Y-40992627D01*
X29831809Y-41052155D01*
X29831809Y-41700000D01*
X30748797Y-41700000D01*
X30715884Y-41757007D01*
X30681809Y-41884174D01*
X30681809Y-42015826D01*
X30715884Y-42142993D01*
X30748797Y-42200000D01*
X29831809Y-42200000D01*
X29831809Y-42847844D01*
X29838210Y-42907372D01*
X29838212Y-42907379D01*
X29884755Y-43032167D01*
X29889739Y-43101858D01*
X29856254Y-43163182D01*
X29794931Y-43196666D01*
X29768573Y-43199500D01*
X14924500Y-43199500D01*
X14857461Y-43179815D01*
X14811706Y-43127011D01*
X14800500Y-43075500D01*
X14800500Y-28024996D01*
X21488371Y-28024996D01*
X21488371Y-28025003D01*
X21508566Y-28204249D01*
X21508567Y-28204254D01*
X21568147Y-28374523D01*
X21664121Y-28527263D01*
X21666381Y-28530097D01*
X21667270Y-28532275D01*
X21667825Y-28533158D01*
X21667670Y-28533255D01*
X21692791Y-28594783D01*
X21693436Y-28607412D01*
X21693436Y-33213329D01*
X21693435Y-33213347D01*
X21693435Y-33217350D01*
X21693106Y-33219284D01*
X21692678Y-33227023D01*
X21692677Y-33227032D01*
X21691806Y-33226935D01*
X21686477Y-33258304D01*
X21664629Y-33320741D01*
X21664627Y-33320749D01*
X21644432Y-33499995D01*
X21644432Y-33500002D01*
X21664627Y-33679248D01*
X21664628Y-33679253D01*
X21724208Y-33849522D01*
X21820181Y-34002261D01*
X21947735Y-34129815D01*
X22100475Y-34225788D01*
X22270742Y-34285367D01*
X22270747Y-34285368D01*
X22449993Y-34305564D01*
X22449997Y-34305564D01*
X22450001Y-34305564D01*
X22629246Y-34285368D01*
X22629249Y-34285367D01*
X22629252Y-34285367D01*
X22799519Y-34225788D01*
X22897240Y-34164385D01*
X22964476Y-34145385D01*
X23029183Y-34164384D01*
X23141382Y-34234884D01*
X23285654Y-34285367D01*
X23311649Y-34294463D01*
X23311654Y-34294464D01*
X23490900Y-34314660D01*
X23490904Y-34314660D01*
X23490908Y-34314660D01*
X23670153Y-34294464D01*
X23670156Y-34294463D01*
X23670159Y-34294463D01*
X23840426Y-34234884D01*
X23993166Y-34138911D01*
X24120720Y-34011357D01*
X24216693Y-33858617D01*
X24276272Y-33688350D01*
X24277298Y-33679248D01*
X24296469Y-33509098D01*
X24296469Y-33509091D01*
X24276273Y-33329845D01*
X24276272Y-33329840D01*
X24238167Y-33220942D01*
X24216693Y-33159573D01*
X24120720Y-33006833D01*
X23993166Y-32879279D01*
X23993162Y-32879275D01*
X23952463Y-32853702D01*
X23906172Y-32801367D01*
X23894436Y-32748709D01*
X23894436Y-28082411D01*
X23914121Y-28015372D01*
X23921491Y-28005096D01*
X23923746Y-28002266D01*
X23923752Y-28002261D01*
X24019725Y-27849521D01*
X24079304Y-27679254D01*
X24079305Y-27679248D01*
X24099501Y-27500002D01*
X24099501Y-27499995D01*
X24079305Y-27320749D01*
X24079304Y-27320744D01*
X24071769Y-27299211D01*
X24019725Y-27150477D01*
X23923752Y-26997737D01*
X23796198Y-26870183D01*
X23643459Y-26774210D01*
X23473190Y-26714630D01*
X23473185Y-26714629D01*
X23293940Y-26694434D01*
X23293932Y-26694434D01*
X23114686Y-26714629D01*
X23114681Y-26714630D01*
X22944412Y-26774210D01*
X22791673Y-26870183D01*
X22664120Y-26997736D01*
X22568148Y-27150474D01*
X22568144Y-27150482D01*
X22567187Y-27153218D01*
X22566092Y-27154743D01*
X22565129Y-27156745D01*
X22564778Y-27156576D01*
X22526460Y-27209990D01*
X22461504Y-27235730D01*
X22436267Y-27235471D01*
X22293940Y-27219435D01*
X22293932Y-27219435D01*
X22114686Y-27239630D01*
X22114681Y-27239631D01*
X21944412Y-27299211D01*
X21791673Y-27395184D01*
X21664120Y-27522737D01*
X21568147Y-27675476D01*
X21508567Y-27845745D01*
X21508566Y-27845750D01*
X21488371Y-28024996D01*
X14800500Y-28024996D01*
X14800500Y-19749996D01*
X24794435Y-19749996D01*
X24794435Y-19750003D01*
X24814630Y-19929249D01*
X24814631Y-19929254D01*
X24874212Y-20099525D01*
X24880185Y-20109032D01*
X24899183Y-20176269D01*
X24880185Y-20240968D01*
X24874212Y-20250474D01*
X24814631Y-20420745D01*
X24814630Y-20420750D01*
X24794435Y-20599996D01*
X24794435Y-20600003D01*
X24814630Y-20779249D01*
X24814631Y-20779254D01*
X24874211Y-20949523D01*
X24970184Y-21102262D01*
X25097738Y-21229816D01*
X25250478Y-21325789D01*
X25420745Y-21385368D01*
X25420750Y-21385369D01*
X25599996Y-21405565D01*
X25600000Y-21405565D01*
X25600004Y-21405565D01*
X25779249Y-21385369D01*
X25779252Y-21385368D01*
X25779255Y-21385368D01*
X25949522Y-21325789D01*
X26102262Y-21229816D01*
X26135545Y-21196532D01*
X26196866Y-21163047D01*
X26266558Y-21168031D01*
X26310907Y-21196532D01*
X31257716Y-26143341D01*
X31291201Y-26204664D01*
X31293255Y-26244905D01*
X31275723Y-26400516D01*
X31275723Y-26400524D01*
X31295918Y-26579770D01*
X31295919Y-26579775D01*
X31355499Y-26750044D01*
X31370684Y-26774210D01*
X31451472Y-26902783D01*
X31579026Y-27030337D01*
X31731766Y-27126310D01*
X31902033Y-27185889D01*
X31902038Y-27185890D01*
X32081284Y-27206086D01*
X32081288Y-27206086D01*
X32081292Y-27206086D01*
X32260537Y-27185890D01*
X32260540Y-27185889D01*
X32260543Y-27185889D01*
X32430810Y-27126310D01*
X32583550Y-27030337D01*
X32711104Y-26902783D01*
X32807077Y-26750043D01*
X32866656Y-26579776D01*
X32886853Y-26400521D01*
X32886852Y-26400516D01*
X32885245Y-26386248D01*
X32897299Y-26317426D01*
X32942490Y-26267372D01*
X33002262Y-26229816D01*
X33129816Y-26102262D01*
X33225789Y-25949522D01*
X33285368Y-25779255D01*
X33305565Y-25600000D01*
X33285368Y-25420745D01*
X33225789Y-25250478D01*
X33129816Y-25097738D01*
X33002262Y-24970184D01*
X32849523Y-24874211D01*
X32679254Y-24814631D01*
X32679249Y-24814630D01*
X32500004Y-24794435D01*
X32499996Y-24794435D01*
X32328972Y-24813704D01*
X32260150Y-24801649D01*
X32227408Y-24778165D01*
X27087597Y-19638354D01*
X27087595Y-19638351D01*
X26968724Y-19519480D01*
X26968719Y-19519476D01*
X26840549Y-19445478D01*
X26840548Y-19445477D01*
X26831794Y-19440422D01*
X26770700Y-19424052D01*
X26679064Y-19399498D01*
X26520950Y-19399498D01*
X26513354Y-19399498D01*
X26513338Y-19399499D01*
X26393706Y-19399499D01*
X26326667Y-19379814D01*
X26288712Y-19341471D01*
X26229815Y-19247737D01*
X26102262Y-19120184D01*
X25949523Y-19024211D01*
X25779254Y-18964631D01*
X25779249Y-18964630D01*
X25600004Y-18944435D01*
X25599996Y-18944435D01*
X25420750Y-18964630D01*
X25420745Y-18964631D01*
X25250476Y-19024211D01*
X25097737Y-19120184D01*
X24970184Y-19247737D01*
X24874211Y-19400476D01*
X24814631Y-19570745D01*
X24814630Y-19570750D01*
X24794435Y-19749996D01*
X14800500Y-19749996D01*
X14800500Y-13124500D01*
X14820185Y-13057461D01*
X14872989Y-13011706D01*
X14924500Y-13000500D01*
X43775500Y-13000500D01*
X43842539Y-13020185D01*
G37*
%TD.AperFunction*%
%TD*%
M02*
