%TF.GenerationSoftware,KiCad,Pcbnew,8.0.4+dfsg-1*%
%TF.CreationDate,2024-12-23T16:36:00+01:00*%
%TF.ProjectId,CMIO-DSI-Adapter,434d494f-2d44-4534-992d-416461707465,rev?*%
%TF.SameCoordinates,Original*%
%TF.FileFunction,Legend,Top*%
%TF.FilePolarity,Positive*%
%FSLAX46Y46*%
G04 Gerber Fmt 4.6, Leading zero omitted, Abs format (unit mm)*
G04 Created by KiCad (PCBNEW 8.0.4+dfsg-1) date 2024-12-23 16:36:00*
%MOMM*%
%LPD*%
G01*
G04 APERTURE LIST*
%ADD10C,0.150000*%
%ADD11C,0.010000*%
%ADD12C,0.508000*%
%ADD13C,0.152400*%
%ADD14C,0.120000*%
G04 APERTURE END LIST*
D10*
X17466666Y-33454819D02*
X17466666Y-34169104D01*
X17466666Y-34169104D02*
X17419047Y-34311961D01*
X17419047Y-34311961D02*
X17323809Y-34407200D01*
X17323809Y-34407200D02*
X17180952Y-34454819D01*
X17180952Y-34454819D02*
X17085714Y-34454819D01*
X17895238Y-33550057D02*
X17942857Y-33502438D01*
X17942857Y-33502438D02*
X18038095Y-33454819D01*
X18038095Y-33454819D02*
X18276190Y-33454819D01*
X18276190Y-33454819D02*
X18371428Y-33502438D01*
X18371428Y-33502438D02*
X18419047Y-33550057D01*
X18419047Y-33550057D02*
X18466666Y-33645295D01*
X18466666Y-33645295D02*
X18466666Y-33740533D01*
X18466666Y-33740533D02*
X18419047Y-33883390D01*
X18419047Y-33883390D02*
X17847619Y-34454819D01*
X17847619Y-34454819D02*
X18466666Y-34454819D01*
X38666666Y-36454819D02*
X38666666Y-37169104D01*
X38666666Y-37169104D02*
X38619047Y-37311961D01*
X38619047Y-37311961D02*
X38523809Y-37407200D01*
X38523809Y-37407200D02*
X38380952Y-37454819D01*
X38380952Y-37454819D02*
X38285714Y-37454819D01*
X39666666Y-37454819D02*
X39095238Y-37454819D01*
X39380952Y-37454819D02*
X39380952Y-36454819D01*
X39380952Y-36454819D02*
X39285714Y-36597676D01*
X39285714Y-36597676D02*
X39190476Y-36692914D01*
X39190476Y-36692914D02*
X39095238Y-36740533D01*
X28182715Y-41734999D02*
X28727001Y-41734999D01*
X28727001Y-41734999D02*
X28835858Y-41771284D01*
X28835858Y-41771284D02*
X28908430Y-41843856D01*
X28908430Y-41843856D02*
X28944715Y-41952713D01*
X28944715Y-41952713D02*
X28944715Y-42025284D01*
X28944715Y-41372142D02*
X28182715Y-41372142D01*
X28182715Y-41372142D02*
X28182715Y-41081856D01*
X28182715Y-41081856D02*
X28219001Y-41009285D01*
X28219001Y-41009285D02*
X28255287Y-40972999D01*
X28255287Y-40972999D02*
X28327858Y-40936713D01*
X28327858Y-40936713D02*
X28436715Y-40936713D01*
X28436715Y-40936713D02*
X28509287Y-40972999D01*
X28509287Y-40972999D02*
X28545572Y-41009285D01*
X28545572Y-41009285D02*
X28581858Y-41081856D01*
X28581858Y-41081856D02*
X28581858Y-41372142D01*
X28182715Y-40247285D02*
X28182715Y-40610142D01*
X28182715Y-40610142D02*
X28545572Y-40646428D01*
X28545572Y-40646428D02*
X28509287Y-40610142D01*
X28509287Y-40610142D02*
X28473001Y-40537571D01*
X28473001Y-40537571D02*
X28473001Y-40356142D01*
X28473001Y-40356142D02*
X28509287Y-40283571D01*
X28509287Y-40283571D02*
X28545572Y-40247285D01*
X28545572Y-40247285D02*
X28618144Y-40210999D01*
X28618144Y-40210999D02*
X28799572Y-40210999D01*
X28799572Y-40210999D02*
X28872144Y-40247285D01*
X28872144Y-40247285D02*
X28908430Y-40283571D01*
X28908430Y-40283571D02*
X28944715Y-40356142D01*
X28944715Y-40356142D02*
X28944715Y-40537571D01*
X28944715Y-40537571D02*
X28908430Y-40610142D01*
X28908430Y-40610142D02*
X28872144Y-40646428D01*
X28282715Y-34334999D02*
X28827001Y-34334999D01*
X28827001Y-34334999D02*
X28935858Y-34371284D01*
X28935858Y-34371284D02*
X29008430Y-34443856D01*
X29008430Y-34443856D02*
X29044715Y-34552713D01*
X29044715Y-34552713D02*
X29044715Y-34625284D01*
X29044715Y-33972142D02*
X28282715Y-33972142D01*
X28282715Y-33972142D02*
X28282715Y-33681856D01*
X28282715Y-33681856D02*
X28319001Y-33609285D01*
X28319001Y-33609285D02*
X28355287Y-33572999D01*
X28355287Y-33572999D02*
X28427858Y-33536713D01*
X28427858Y-33536713D02*
X28536715Y-33536713D01*
X28536715Y-33536713D02*
X28609287Y-33572999D01*
X28609287Y-33572999D02*
X28645572Y-33609285D01*
X28645572Y-33609285D02*
X28681858Y-33681856D01*
X28681858Y-33681856D02*
X28681858Y-33972142D01*
X28282715Y-33282713D02*
X28282715Y-32810999D01*
X28282715Y-32810999D02*
X28573001Y-33064999D01*
X28573001Y-33064999D02*
X28573001Y-32956142D01*
X28573001Y-32956142D02*
X28609287Y-32883571D01*
X28609287Y-32883571D02*
X28645572Y-32847285D01*
X28645572Y-32847285D02*
X28718144Y-32810999D01*
X28718144Y-32810999D02*
X28899572Y-32810999D01*
X28899572Y-32810999D02*
X28972144Y-32847285D01*
X28972144Y-32847285D02*
X29008430Y-32883571D01*
X29008430Y-32883571D02*
X29044715Y-32956142D01*
X29044715Y-32956142D02*
X29044715Y-33173856D01*
X29044715Y-33173856D02*
X29008430Y-33246428D01*
X29008430Y-33246428D02*
X28972144Y-33282713D01*
X28282715Y-30834999D02*
X28827001Y-30834999D01*
X28827001Y-30834999D02*
X28935858Y-30871284D01*
X28935858Y-30871284D02*
X29008430Y-30943856D01*
X29008430Y-30943856D02*
X29044715Y-31052713D01*
X29044715Y-31052713D02*
X29044715Y-31125284D01*
X29044715Y-30472142D02*
X28282715Y-30472142D01*
X28282715Y-30472142D02*
X28282715Y-30181856D01*
X28282715Y-30181856D02*
X28319001Y-30109285D01*
X28319001Y-30109285D02*
X28355287Y-30072999D01*
X28355287Y-30072999D02*
X28427858Y-30036713D01*
X28427858Y-30036713D02*
X28536715Y-30036713D01*
X28536715Y-30036713D02*
X28609287Y-30072999D01*
X28609287Y-30072999D02*
X28645572Y-30109285D01*
X28645572Y-30109285D02*
X28681858Y-30181856D01*
X28681858Y-30181856D02*
X28681858Y-30472142D01*
X28355287Y-29746428D02*
X28319001Y-29710142D01*
X28319001Y-29710142D02*
X28282715Y-29637571D01*
X28282715Y-29637571D02*
X28282715Y-29456142D01*
X28282715Y-29456142D02*
X28319001Y-29383571D01*
X28319001Y-29383571D02*
X28355287Y-29347285D01*
X28355287Y-29347285D02*
X28427858Y-29310999D01*
X28427858Y-29310999D02*
X28500430Y-29310999D01*
X28500430Y-29310999D02*
X28609287Y-29347285D01*
X28609287Y-29347285D02*
X29044715Y-29782713D01*
X29044715Y-29782713D02*
X29044715Y-29310999D01*
X28382715Y-27134999D02*
X28927001Y-27134999D01*
X28927001Y-27134999D02*
X29035858Y-27171284D01*
X29035858Y-27171284D02*
X29108430Y-27243856D01*
X29108430Y-27243856D02*
X29144715Y-27352713D01*
X29144715Y-27352713D02*
X29144715Y-27425284D01*
X29144715Y-26772142D02*
X28382715Y-26772142D01*
X28382715Y-26772142D02*
X28382715Y-26481856D01*
X28382715Y-26481856D02*
X28419001Y-26409285D01*
X28419001Y-26409285D02*
X28455287Y-26372999D01*
X28455287Y-26372999D02*
X28527858Y-26336713D01*
X28527858Y-26336713D02*
X28636715Y-26336713D01*
X28636715Y-26336713D02*
X28709287Y-26372999D01*
X28709287Y-26372999D02*
X28745572Y-26409285D01*
X28745572Y-26409285D02*
X28781858Y-26481856D01*
X28781858Y-26481856D02*
X28781858Y-26772142D01*
X29144715Y-25610999D02*
X29144715Y-26046428D01*
X29144715Y-25828713D02*
X28382715Y-25828713D01*
X28382715Y-25828713D02*
X28491572Y-25901285D01*
X28491572Y-25901285D02*
X28564144Y-25973856D01*
X28564144Y-25973856D02*
X28600430Y-26046428D01*
X28282715Y-37634999D02*
X28827001Y-37634999D01*
X28827001Y-37634999D02*
X28935858Y-37671284D01*
X28935858Y-37671284D02*
X29008430Y-37743856D01*
X29008430Y-37743856D02*
X29044715Y-37852713D01*
X29044715Y-37852713D02*
X29044715Y-37925284D01*
X29044715Y-37272142D02*
X28282715Y-37272142D01*
X28282715Y-37272142D02*
X28282715Y-36981856D01*
X28282715Y-36981856D02*
X28319001Y-36909285D01*
X28319001Y-36909285D02*
X28355287Y-36872999D01*
X28355287Y-36872999D02*
X28427858Y-36836713D01*
X28427858Y-36836713D02*
X28536715Y-36836713D01*
X28536715Y-36836713D02*
X28609287Y-36872999D01*
X28609287Y-36872999D02*
X28645572Y-36909285D01*
X28645572Y-36909285D02*
X28681858Y-36981856D01*
X28681858Y-36981856D02*
X28681858Y-37272142D01*
X28536715Y-36183571D02*
X29044715Y-36183571D01*
X28246430Y-36364999D02*
X28790715Y-36546428D01*
X28790715Y-36546428D02*
X28790715Y-36074713D01*
X33566666Y-41664820D02*
X33566666Y-42379105D01*
X33566666Y-42379105D02*
X33519047Y-42521962D01*
X33519047Y-42521962D02*
X33423809Y-42617201D01*
X33423809Y-42617201D02*
X33280952Y-42664820D01*
X33280952Y-42664820D02*
X33185714Y-42664820D01*
X33947619Y-41664820D02*
X34566666Y-41664820D01*
X34566666Y-41664820D02*
X34233333Y-42045772D01*
X34233333Y-42045772D02*
X34376190Y-42045772D01*
X34376190Y-42045772D02*
X34471428Y-42093391D01*
X34471428Y-42093391D02*
X34519047Y-42141010D01*
X34519047Y-42141010D02*
X34566666Y-42236248D01*
X34566666Y-42236248D02*
X34566666Y-42474343D01*
X34566666Y-42474343D02*
X34519047Y-42569581D01*
X34519047Y-42569581D02*
X34471428Y-42617201D01*
X34471428Y-42617201D02*
X34376190Y-42664820D01*
X34376190Y-42664820D02*
X34090476Y-42664820D01*
X34090476Y-42664820D02*
X33995238Y-42617201D01*
X33995238Y-42617201D02*
X33947619Y-42569581D01*
D11*
%TO.C,REF\u002A\u002A*%
X42509639Y-21361106D02*
X42583741Y-21361470D01*
X42640513Y-21362275D01*
X42682577Y-21363686D01*
X42712557Y-21365866D01*
X42733076Y-21368978D01*
X42746758Y-21373185D01*
X42756225Y-21378651D01*
X42760891Y-21382527D01*
X42781384Y-21413965D01*
X42780548Y-21449766D01*
X42763073Y-21481126D01*
X42741493Y-21507777D01*
X42094036Y-21507777D01*
X42072456Y-21481126D01*
X42056758Y-21455405D01*
X42050876Y-21434399D01*
X42057686Y-21411385D01*
X42072456Y-21387672D01*
X42094036Y-21361021D01*
X42415582Y-21361021D01*
X42509639Y-21361106D01*
G36*
X42509639Y-21361106D02*
G01*
X42583741Y-21361470D01*
X42640513Y-21362275D01*
X42682577Y-21363686D01*
X42712557Y-21365866D01*
X42733076Y-21368978D01*
X42746758Y-21373185D01*
X42756225Y-21378651D01*
X42760891Y-21382527D01*
X42781384Y-21413965D01*
X42780548Y-21449766D01*
X42763073Y-21481126D01*
X42741493Y-21507777D01*
X42094036Y-21507777D01*
X42072456Y-21481126D01*
X42056758Y-21455405D01*
X42050876Y-21434399D01*
X42057686Y-21411385D01*
X42072456Y-21387672D01*
X42094036Y-21361021D01*
X42415582Y-21361021D01*
X42509639Y-21361106D01*
G37*
X42511611Y-28501313D02*
X42585498Y-28501637D01*
X42642041Y-28502385D01*
X42683858Y-28503731D01*
X42713566Y-28505845D01*
X42733782Y-28508899D01*
X42747123Y-28513065D01*
X42756207Y-28518515D01*
X42762076Y-28523821D01*
X42781756Y-28556825D01*
X42779990Y-28591990D01*
X42758526Y-28623454D01*
X42750146Y-28630683D01*
X42740423Y-28636333D01*
X42726670Y-28640598D01*
X42706198Y-28643672D01*
X42676321Y-28645751D01*
X42634350Y-28647029D01*
X42577598Y-28647700D01*
X42503376Y-28647958D01*
X42419346Y-28647999D01*
X42106294Y-28647999D01*
X42078585Y-28620290D01*
X42055272Y-28586136D01*
X42054432Y-28553005D01*
X42073454Y-28523821D01*
X42081027Y-28517241D01*
X42090796Y-28512078D01*
X42105380Y-28508163D01*
X42127394Y-28505323D01*
X42159457Y-28503386D01*
X42204184Y-28502182D01*
X42264194Y-28501538D01*
X42342103Y-28501283D01*
X42417765Y-28501244D01*
X42511611Y-28501313D01*
G36*
X42511611Y-28501313D02*
G01*
X42585498Y-28501637D01*
X42642041Y-28502385D01*
X42683858Y-28503731D01*
X42713566Y-28505845D01*
X42733782Y-28508899D01*
X42747123Y-28513065D01*
X42756207Y-28518515D01*
X42762076Y-28523821D01*
X42781756Y-28556825D01*
X42779990Y-28591990D01*
X42758526Y-28623454D01*
X42750146Y-28630683D01*
X42740423Y-28636333D01*
X42726670Y-28640598D01*
X42706198Y-28643672D01*
X42676321Y-28645751D01*
X42634350Y-28647029D01*
X42577598Y-28647700D01*
X42503376Y-28647958D01*
X42419346Y-28647999D01*
X42106294Y-28647999D01*
X42078585Y-28620290D01*
X42055272Y-28586136D01*
X42054432Y-28553005D01*
X42073454Y-28523821D01*
X42081027Y-28517241D01*
X42090796Y-28512078D01*
X42105380Y-28508163D01*
X42127394Y-28505323D01*
X42159457Y-28503386D01*
X42204184Y-28502182D01*
X42264194Y-28501538D01*
X42342103Y-28501283D01*
X42417765Y-28501244D01*
X42511611Y-28501313D01*
G37*
X37386463Y-27492139D02*
X37474320Y-27525839D01*
X37553579Y-27576527D01*
X37621645Y-27642344D01*
X37675921Y-27721433D01*
X37713811Y-27811933D01*
X37726235Y-27863199D01*
X37733756Y-27907697D01*
X37736728Y-27941998D01*
X37734903Y-27974959D01*
X37728034Y-28015433D01*
X37721059Y-28048530D01*
X37689550Y-28141946D01*
X37638426Y-28225618D01*
X37569238Y-28297664D01*
X37483537Y-28356199D01*
X37456298Y-28370147D01*
X37419931Y-28386585D01*
X37389391Y-28396893D01*
X37357259Y-28402459D01*
X37316116Y-28404668D01*
X37270031Y-28404947D01*
X37185674Y-28400860D01*
X37116395Y-28387445D01*
X37055770Y-28362255D01*
X36997376Y-28322845D01*
X36953111Y-28284297D01*
X36887293Y-28212405D01*
X36841862Y-28137312D01*
X36814659Y-28054561D01*
X36804385Y-27976927D01*
X36808380Y-27873042D01*
X36832618Y-27776767D01*
X36875450Y-27690183D01*
X36935228Y-27615372D01*
X37010303Y-27554417D01*
X37099029Y-27509398D01*
X37195339Y-27483135D01*
X37292604Y-27477285D01*
X37386463Y-27492139D01*
G36*
X37386463Y-27492139D02*
G01*
X37474320Y-27525839D01*
X37553579Y-27576527D01*
X37621645Y-27642344D01*
X37675921Y-27721433D01*
X37713811Y-27811933D01*
X37726235Y-27863199D01*
X37733756Y-27907697D01*
X37736728Y-27941998D01*
X37734903Y-27974959D01*
X37728034Y-28015433D01*
X37721059Y-28048530D01*
X37689550Y-28141946D01*
X37638426Y-28225618D01*
X37569238Y-28297664D01*
X37483537Y-28356199D01*
X37456298Y-28370147D01*
X37419931Y-28386585D01*
X37389391Y-28396893D01*
X37357259Y-28402459D01*
X37316116Y-28404668D01*
X37270031Y-28404947D01*
X37185674Y-28400860D01*
X37116395Y-28387445D01*
X37055770Y-28362255D01*
X36997376Y-28322845D01*
X36953111Y-28284297D01*
X36887293Y-28212405D01*
X36841862Y-28137312D01*
X36814659Y-28054561D01*
X36804385Y-27976927D01*
X36808380Y-27873042D01*
X36832618Y-27776767D01*
X36875450Y-27690183D01*
X36935228Y-27615372D01*
X37010303Y-27554417D01*
X37099029Y-27509398D01*
X37195339Y-27483135D01*
X37292604Y-27477285D01*
X37386463Y-27492139D01*
G37*
X42167635Y-20351288D02*
X42179898Y-20361651D01*
X42188259Y-20372803D01*
X42193466Y-20388964D01*
X42196266Y-20414357D01*
X42197405Y-20453201D01*
X42197630Y-20509719D01*
X42197631Y-20520819D01*
X42197631Y-20666755D01*
X42468565Y-20666755D01*
X42553963Y-20666851D01*
X42619673Y-20667288D01*
X42668583Y-20668287D01*
X42703582Y-20670071D01*
X42727558Y-20672862D01*
X42743402Y-20676882D01*
X42754000Y-20682354D01*
X42762076Y-20689333D01*
X42781921Y-20722265D01*
X42780357Y-20756645D01*
X42757715Y-20787823D01*
X42754909Y-20790113D01*
X42744301Y-20797570D01*
X42731890Y-20803252D01*
X42714659Y-20807398D01*
X42689593Y-20810249D01*
X42653676Y-20812045D01*
X42603892Y-20813027D01*
X42537226Y-20813435D01*
X42461398Y-20813510D01*
X42197631Y-20813510D01*
X42197631Y-20952872D01*
X42197227Y-21012677D01*
X42195649Y-21054081D01*
X42192356Y-21081251D01*
X42186801Y-21098353D01*
X42178440Y-21109556D01*
X42176987Y-21110916D01*
X42143748Y-21127274D01*
X42106171Y-21125827D01*
X42073454Y-21107021D01*
X42067107Y-21099749D01*
X42062075Y-21090372D01*
X42058205Y-21076390D01*
X42055346Y-21055303D01*
X42053344Y-21024610D01*
X42052048Y-20981810D01*
X42051307Y-20924404D01*
X42050967Y-20849889D01*
X42050877Y-20755766D01*
X42050876Y-20735739D01*
X42050972Y-20636934D01*
X42051351Y-20558227D01*
X42052142Y-20497136D01*
X42053479Y-20451182D01*
X42055492Y-20417885D01*
X42058315Y-20394763D01*
X42062078Y-20379337D01*
X42066914Y-20369128D01*
X42070631Y-20364186D01*
X42103167Y-20338542D01*
X42136947Y-20335440D01*
X42167635Y-20351288D01*
G36*
X42167635Y-20351288D02*
G01*
X42179898Y-20361651D01*
X42188259Y-20372803D01*
X42193466Y-20388964D01*
X42196266Y-20414357D01*
X42197405Y-20453201D01*
X42197630Y-20509719D01*
X42197631Y-20520819D01*
X42197631Y-20666755D01*
X42468565Y-20666755D01*
X42553963Y-20666851D01*
X42619673Y-20667288D01*
X42668583Y-20668287D01*
X42703582Y-20670071D01*
X42727558Y-20672862D01*
X42743402Y-20676882D01*
X42754000Y-20682354D01*
X42762076Y-20689333D01*
X42781921Y-20722265D01*
X42780357Y-20756645D01*
X42757715Y-20787823D01*
X42754909Y-20790113D01*
X42744301Y-20797570D01*
X42731890Y-20803252D01*
X42714659Y-20807398D01*
X42689593Y-20810249D01*
X42653676Y-20812045D01*
X42603892Y-20813027D01*
X42537226Y-20813435D01*
X42461398Y-20813510D01*
X42197631Y-20813510D01*
X42197631Y-20952872D01*
X42197227Y-21012677D01*
X42195649Y-21054081D01*
X42192356Y-21081251D01*
X42186801Y-21098353D01*
X42178440Y-21109556D01*
X42176987Y-21110916D01*
X42143748Y-21127274D01*
X42106171Y-21125827D01*
X42073454Y-21107021D01*
X42067107Y-21099749D01*
X42062075Y-21090372D01*
X42058205Y-21076390D01*
X42055346Y-21055303D01*
X42053344Y-21024610D01*
X42052048Y-20981810D01*
X42051307Y-20924404D01*
X42050967Y-20849889D01*
X42050877Y-20755766D01*
X42050876Y-20735739D01*
X42050972Y-20636934D01*
X42051351Y-20558227D01*
X42052142Y-20497136D01*
X42053479Y-20451182D01*
X42055492Y-20417885D01*
X42058315Y-20394763D01*
X42062078Y-20379337D01*
X42066914Y-20369128D01*
X42070631Y-20364186D01*
X42103167Y-20338542D01*
X42136947Y-20335440D01*
X42167635Y-20351288D01*
G37*
X42507608Y-19312161D02*
X42579649Y-19312504D01*
X42634589Y-19313307D01*
X42675169Y-19314758D01*
X42704126Y-19317047D01*
X42724200Y-19320363D01*
X42738130Y-19324894D01*
X42748654Y-19330830D01*
X42754909Y-19335485D01*
X42779482Y-19366216D01*
X42782150Y-19401503D01*
X42767080Y-19433754D01*
X42758183Y-19444411D01*
X42746366Y-19451535D01*
X42727335Y-19455832D01*
X42696801Y-19458008D01*
X42650471Y-19458771D01*
X42614680Y-19458844D01*
X42479854Y-19458844D01*
X42479854Y-19955555D01*
X42602509Y-19955555D01*
X42658596Y-19956068D01*
X42697142Y-19958123D01*
X42723170Y-19962491D01*
X42741706Y-19969943D01*
X42754909Y-19978952D01*
X42779413Y-20009855D01*
X42782315Y-20044803D01*
X42764898Y-20078261D01*
X42755768Y-20087395D01*
X42743664Y-20093847D01*
X42724810Y-20098102D01*
X42695429Y-20100647D01*
X42651746Y-20101970D01*
X42589984Y-20102556D01*
X42575809Y-20102624D01*
X42459440Y-20103108D01*
X42363536Y-20103358D01*
X42285986Y-20103276D01*
X42224678Y-20102768D01*
X42177499Y-20101737D01*
X42142339Y-20100086D01*
X42117085Y-20097720D01*
X42099626Y-20094542D01*
X42087850Y-20090455D01*
X42079644Y-20085365D01*
X42073454Y-20079733D01*
X42053653Y-20047871D01*
X42056342Y-20014642D01*
X42078585Y-19983264D01*
X42092935Y-19970566D01*
X42108787Y-19962473D01*
X42131363Y-19957957D01*
X42165887Y-19955993D01*
X42217585Y-19955555D01*
X42333098Y-19955555D01*
X42333098Y-19458844D01*
X42214565Y-19458844D01*
X42159957Y-19458337D01*
X42123084Y-19456301D01*
X42099116Y-19451964D01*
X42083224Y-19444552D01*
X42073454Y-19436266D01*
X42053653Y-19404405D01*
X42056342Y-19371176D01*
X42078585Y-19339797D01*
X42106294Y-19312088D01*
X42415729Y-19312088D01*
X42507608Y-19312161D01*
G36*
X42507608Y-19312161D02*
G01*
X42579649Y-19312504D01*
X42634589Y-19313307D01*
X42675169Y-19314758D01*
X42704126Y-19317047D01*
X42724200Y-19320363D01*
X42738130Y-19324894D01*
X42748654Y-19330830D01*
X42754909Y-19335485D01*
X42779482Y-19366216D01*
X42782150Y-19401503D01*
X42767080Y-19433754D01*
X42758183Y-19444411D01*
X42746366Y-19451535D01*
X42727335Y-19455832D01*
X42696801Y-19458008D01*
X42650471Y-19458771D01*
X42614680Y-19458844D01*
X42479854Y-19458844D01*
X42479854Y-19955555D01*
X42602509Y-19955555D01*
X42658596Y-19956068D01*
X42697142Y-19958123D01*
X42723170Y-19962491D01*
X42741706Y-19969943D01*
X42754909Y-19978952D01*
X42779413Y-20009855D01*
X42782315Y-20044803D01*
X42764898Y-20078261D01*
X42755768Y-20087395D01*
X42743664Y-20093847D01*
X42724810Y-20098102D01*
X42695429Y-20100647D01*
X42651746Y-20101970D01*
X42589984Y-20102556D01*
X42575809Y-20102624D01*
X42459440Y-20103108D01*
X42363536Y-20103358D01*
X42285986Y-20103276D01*
X42224678Y-20102768D01*
X42177499Y-20101737D01*
X42142339Y-20100086D01*
X42117085Y-20097720D01*
X42099626Y-20094542D01*
X42087850Y-20090455D01*
X42079644Y-20085365D01*
X42073454Y-20079733D01*
X42053653Y-20047871D01*
X42056342Y-20014642D01*
X42078585Y-19983264D01*
X42092935Y-19970566D01*
X42108787Y-19962473D01*
X42131363Y-19957957D01*
X42165887Y-19955993D01*
X42217585Y-19955555D01*
X42333098Y-19955555D01*
X42333098Y-19458844D01*
X42214565Y-19458844D01*
X42159957Y-19458337D01*
X42123084Y-19456301D01*
X42099116Y-19451964D01*
X42083224Y-19444552D01*
X42073454Y-19436266D01*
X42053653Y-19404405D01*
X42056342Y-19371176D01*
X42078585Y-19339797D01*
X42106294Y-19312088D01*
X42415729Y-19312088D01*
X42507608Y-19312161D01*
G37*
X42469696Y-23993768D02*
X42532882Y-24016345D01*
X42542498Y-24020627D01*
X42598775Y-24049827D01*
X42642260Y-24082643D01*
X42679226Y-24124997D01*
X42715944Y-24182809D01*
X42717861Y-24186168D01*
X42742036Y-24236495D01*
X42760091Y-24293378D01*
X42772648Y-24360472D01*
X42780331Y-24441434D01*
X42783762Y-24539917D01*
X42784060Y-24574713D01*
X42784654Y-24740405D01*
X42754909Y-24763802D01*
X42745128Y-24770742D01*
X42733706Y-24776157D01*
X42717904Y-24780234D01*
X42694984Y-24783162D01*
X42662205Y-24785132D01*
X42637898Y-24785774D01*
X42616830Y-24786331D01*
X42556120Y-24786949D01*
X42477335Y-24787174D01*
X42415729Y-24787199D01*
X42106294Y-24787199D01*
X42078585Y-24759490D01*
X42067353Y-24747193D01*
X42059662Y-24733896D01*
X42054849Y-24715327D01*
X42052255Y-24687213D01*
X42051219Y-24645282D01*
X42051181Y-24629155D01*
X42197631Y-24629155D01*
X42637898Y-24629155D01*
X42637898Y-24535273D01*
X42636292Y-24480335D01*
X42632064Y-24423939D01*
X42626101Y-24377654D01*
X42625599Y-24374860D01*
X42603545Y-24292651D01*
X42570409Y-24228885D01*
X42524656Y-24181547D01*
X42464748Y-24148617D01*
X42448870Y-24142891D01*
X42424142Y-24137278D01*
X42399711Y-24139708D01*
X42367209Y-24151532D01*
X42351243Y-24158659D01*
X42308815Y-24181999D01*
X42279049Y-24210119D01*
X42258320Y-24241059D01*
X42231346Y-24303033D01*
X42211807Y-24382348D01*
X42200555Y-24474746D01*
X42198079Y-24541666D01*
X42197631Y-24629155D01*
X42051181Y-24629155D01*
X42051079Y-24585262D01*
X42051084Y-24581690D01*
X42055445Y-24452711D01*
X42068670Y-24343008D01*
X42091550Y-24250773D01*
X42124879Y-24174197D01*
X42169447Y-24111472D01*
X42226045Y-24060787D01*
X42295467Y-24020336D01*
X42297160Y-24019540D01*
X42359292Y-23995398D01*
X42414318Y-23986796D01*
X42469696Y-23993768D01*
G36*
X42469696Y-23993768D02*
G01*
X42532882Y-24016345D01*
X42542498Y-24020627D01*
X42598775Y-24049827D01*
X42642260Y-24082643D01*
X42679226Y-24124997D01*
X42715944Y-24182809D01*
X42717861Y-24186168D01*
X42742036Y-24236495D01*
X42760091Y-24293378D01*
X42772648Y-24360472D01*
X42780331Y-24441434D01*
X42783762Y-24539917D01*
X42784060Y-24574713D01*
X42784654Y-24740405D01*
X42754909Y-24763802D01*
X42745128Y-24770742D01*
X42733706Y-24776157D01*
X42717904Y-24780234D01*
X42694984Y-24783162D01*
X42662205Y-24785132D01*
X42637898Y-24785774D01*
X42616830Y-24786331D01*
X42556120Y-24786949D01*
X42477335Y-24787174D01*
X42415729Y-24787199D01*
X42106294Y-24787199D01*
X42078585Y-24759490D01*
X42067353Y-24747193D01*
X42059662Y-24733896D01*
X42054849Y-24715327D01*
X42052255Y-24687213D01*
X42051219Y-24645282D01*
X42051181Y-24629155D01*
X42197631Y-24629155D01*
X42637898Y-24629155D01*
X42637898Y-24535273D01*
X42636292Y-24480335D01*
X42632064Y-24423939D01*
X42626101Y-24377654D01*
X42625599Y-24374860D01*
X42603545Y-24292651D01*
X42570409Y-24228885D01*
X42524656Y-24181547D01*
X42464748Y-24148617D01*
X42448870Y-24142891D01*
X42424142Y-24137278D01*
X42399711Y-24139708D01*
X42367209Y-24151532D01*
X42351243Y-24158659D01*
X42308815Y-24181999D01*
X42279049Y-24210119D01*
X42258320Y-24241059D01*
X42231346Y-24303033D01*
X42211807Y-24382348D01*
X42200555Y-24474746D01*
X42198079Y-24541666D01*
X42197631Y-24629155D01*
X42051181Y-24629155D01*
X42051079Y-24585262D01*
X42051084Y-24581690D01*
X42055445Y-24452711D01*
X42068670Y-24343008D01*
X42091550Y-24250773D01*
X42124879Y-24174197D01*
X42169447Y-24111472D01*
X42226045Y-24060787D01*
X42295467Y-24020336D01*
X42297160Y-24019540D01*
X42359292Y-23995398D01*
X42414318Y-23986796D01*
X42469696Y-23993768D01*
G37*
X42476578Y-31094416D02*
X42540822Y-31115898D01*
X42601630Y-31146998D01*
X42650139Y-31183865D01*
X42655991Y-31189853D01*
X42697130Y-31240578D01*
X42729244Y-31296124D01*
X42753174Y-31359695D01*
X42769762Y-31434493D01*
X42779850Y-31523721D01*
X42784278Y-31630581D01*
X42784654Y-31679527D01*
X42784354Y-31741761D01*
X42783101Y-31785527D01*
X42780363Y-31814930D01*
X42775610Y-31834078D01*
X42768310Y-31847076D01*
X42762076Y-31854044D01*
X42754503Y-31860625D01*
X42744733Y-31865787D01*
X42730149Y-31869702D01*
X42708135Y-31872542D01*
X42676073Y-31874479D01*
X42631345Y-31875683D01*
X42571335Y-31876327D01*
X42493426Y-31876582D01*
X42417765Y-31876621D01*
X42316850Y-31876869D01*
X42236236Y-31876816D01*
X42197631Y-31875856D01*
X42173660Y-31875259D01*
X42126864Y-31870997D01*
X42093587Y-31862829D01*
X42071568Y-31849555D01*
X42058548Y-31829973D01*
X42052266Y-31802882D01*
X42050462Y-31767081D01*
X42050875Y-31721370D01*
X42051276Y-31681888D01*
X42051957Y-31653666D01*
X42197617Y-31653666D01*
X42197631Y-31729866D01*
X42637898Y-31729866D01*
X42637813Y-31636733D01*
X42636205Y-31580692D01*
X42632065Y-31521998D01*
X42626273Y-31473027D01*
X42626035Y-31471537D01*
X42606899Y-31392391D01*
X42577096Y-31331001D01*
X42534687Y-31284304D01*
X42488770Y-31254634D01*
X42437835Y-31236352D01*
X42390009Y-31237770D01*
X42338742Y-31258987D01*
X42285708Y-31300488D01*
X42246409Y-31357997D01*
X42220140Y-31432749D01*
X42210844Y-31482707D01*
X42204316Y-31539415D01*
X42199591Y-31599518D01*
X42197626Y-31650638D01*
X42197617Y-31653666D01*
X42051957Y-31653666D01*
X42054068Y-31566199D01*
X42062359Y-31469310D01*
X42077041Y-31387918D01*
X42099002Y-31318722D01*
X42129131Y-31258419D01*
X42168319Y-31203707D01*
X42185341Y-31184166D01*
X42225172Y-31151749D01*
X42279222Y-31122519D01*
X42339132Y-31099990D01*
X42396548Y-31087678D01*
X42417765Y-31086399D01*
X42476578Y-31094416D01*
G36*
X42476578Y-31094416D02*
G01*
X42540822Y-31115898D01*
X42601630Y-31146998D01*
X42650139Y-31183865D01*
X42655991Y-31189853D01*
X42697130Y-31240578D01*
X42729244Y-31296124D01*
X42753174Y-31359695D01*
X42769762Y-31434493D01*
X42779850Y-31523721D01*
X42784278Y-31630581D01*
X42784654Y-31679527D01*
X42784354Y-31741761D01*
X42783101Y-31785527D01*
X42780363Y-31814930D01*
X42775610Y-31834078D01*
X42768310Y-31847076D01*
X42762076Y-31854044D01*
X42754503Y-31860625D01*
X42744733Y-31865787D01*
X42730149Y-31869702D01*
X42708135Y-31872542D01*
X42676073Y-31874479D01*
X42631345Y-31875683D01*
X42571335Y-31876327D01*
X42493426Y-31876582D01*
X42417765Y-31876621D01*
X42316850Y-31876869D01*
X42236236Y-31876816D01*
X42197631Y-31875856D01*
X42173660Y-31875259D01*
X42126864Y-31870997D01*
X42093587Y-31862829D01*
X42071568Y-31849555D01*
X42058548Y-31829973D01*
X42052266Y-31802882D01*
X42050462Y-31767081D01*
X42050875Y-31721370D01*
X42051276Y-31681888D01*
X42051957Y-31653666D01*
X42197617Y-31653666D01*
X42197631Y-31729866D01*
X42637898Y-31729866D01*
X42637813Y-31636733D01*
X42636205Y-31580692D01*
X42632065Y-31521998D01*
X42626273Y-31473027D01*
X42626035Y-31471537D01*
X42606899Y-31392391D01*
X42577096Y-31331001D01*
X42534687Y-31284304D01*
X42488770Y-31254634D01*
X42437835Y-31236352D01*
X42390009Y-31237770D01*
X42338742Y-31258987D01*
X42285708Y-31300488D01*
X42246409Y-31357997D01*
X42220140Y-31432749D01*
X42210844Y-31482707D01*
X42204316Y-31539415D01*
X42199591Y-31599518D01*
X42197626Y-31650638D01*
X42197617Y-31653666D01*
X42051957Y-31653666D01*
X42054068Y-31566199D01*
X42062359Y-31469310D01*
X42077041Y-31387918D01*
X42099002Y-31318722D01*
X42129131Y-31258419D01*
X42168319Y-31203707D01*
X42185341Y-31184166D01*
X42225172Y-31151749D01*
X42279222Y-31122519D01*
X42339132Y-31099990D01*
X42396548Y-31087678D01*
X42417765Y-31086399D01*
X42476578Y-31094416D01*
G37*
X42629970Y-26188112D02*
X42671151Y-26189031D01*
X42700612Y-26190886D01*
X42721064Y-26193838D01*
X42735222Y-26198049D01*
X42745800Y-26203681D01*
X42754283Y-26209926D01*
X42770016Y-26223438D01*
X42780445Y-26236882D01*
X42784448Y-26252123D01*
X42780903Y-26271025D01*
X42768688Y-26295454D01*
X42746680Y-26327272D01*
X42713758Y-26368347D01*
X42668800Y-26420541D01*
X42610684Y-26485721D01*
X42543908Y-26559555D01*
X42303267Y-26824844D01*
X42522398Y-26830488D01*
X42597937Y-26832530D01*
X42654163Y-26834501D01*
X42694333Y-26836838D01*
X42721705Y-26839980D01*
X42739537Y-26844363D01*
X42751088Y-26850423D01*
X42759616Y-26858599D01*
X42763091Y-26862783D01*
X42782181Y-26899764D01*
X42779302Y-26934707D01*
X42754909Y-26965135D01*
X42745095Y-26972096D01*
X42733635Y-26977522D01*
X42717777Y-26981602D01*
X42694772Y-26984528D01*
X42661871Y-26986491D01*
X42616325Y-26987682D01*
X42555382Y-26988291D01*
X42476295Y-26988510D01*
X42417765Y-26988533D01*
X42326216Y-26988459D01*
X42254496Y-26988112D01*
X42199854Y-26987300D01*
X42159541Y-26985832D01*
X42130807Y-26983518D01*
X42110902Y-26980166D01*
X42097077Y-26975587D01*
X42086581Y-26969588D01*
X42080620Y-26965135D01*
X42066500Y-26953849D01*
X42055838Y-26943300D01*
X42049701Y-26931892D01*
X42049152Y-26918029D01*
X42055257Y-26900113D01*
X42069082Y-26876547D01*
X42091690Y-26845734D01*
X42124147Y-26806077D01*
X42167517Y-26755979D01*
X42222867Y-26693842D01*
X42291260Y-26618071D01*
X42369893Y-26531333D01*
X42533687Y-26350710D01*
X42313838Y-26345066D01*
X42238160Y-26343028D01*
X42181803Y-26341062D01*
X42141515Y-26338733D01*
X42114044Y-26335605D01*
X42096138Y-26331244D01*
X42084546Y-26325215D01*
X42076017Y-26317083D01*
X42072432Y-26312771D01*
X42053479Y-26278240D01*
X42056250Y-26245382D01*
X42072442Y-26219317D01*
X42094008Y-26192666D01*
X42408960Y-26189351D01*
X42501588Y-26188434D01*
X42574353Y-26187967D01*
X42629970Y-26188112D01*
G36*
X42629970Y-26188112D02*
G01*
X42671151Y-26189031D01*
X42700612Y-26190886D01*
X42721064Y-26193838D01*
X42735222Y-26198049D01*
X42745800Y-26203681D01*
X42754283Y-26209926D01*
X42770016Y-26223438D01*
X42780445Y-26236882D01*
X42784448Y-26252123D01*
X42780903Y-26271025D01*
X42768688Y-26295454D01*
X42746680Y-26327272D01*
X42713758Y-26368347D01*
X42668800Y-26420541D01*
X42610684Y-26485721D01*
X42543908Y-26559555D01*
X42303267Y-26824844D01*
X42522398Y-26830488D01*
X42597937Y-26832530D01*
X42654163Y-26834501D01*
X42694333Y-26836838D01*
X42721705Y-26839980D01*
X42739537Y-26844363D01*
X42751088Y-26850423D01*
X42759616Y-26858599D01*
X42763091Y-26862783D01*
X42782181Y-26899764D01*
X42779302Y-26934707D01*
X42754909Y-26965135D01*
X42745095Y-26972096D01*
X42733635Y-26977522D01*
X42717777Y-26981602D01*
X42694772Y-26984528D01*
X42661871Y-26986491D01*
X42616325Y-26987682D01*
X42555382Y-26988291D01*
X42476295Y-26988510D01*
X42417765Y-26988533D01*
X42326216Y-26988459D01*
X42254496Y-26988112D01*
X42199854Y-26987300D01*
X42159541Y-26985832D01*
X42130807Y-26983518D01*
X42110902Y-26980166D01*
X42097077Y-26975587D01*
X42086581Y-26969588D01*
X42080620Y-26965135D01*
X42066500Y-26953849D01*
X42055838Y-26943300D01*
X42049701Y-26931892D01*
X42049152Y-26918029D01*
X42055257Y-26900113D01*
X42069082Y-26876547D01*
X42091690Y-26845734D01*
X42124147Y-26806077D01*
X42167517Y-26755979D01*
X42222867Y-26693842D01*
X42291260Y-26618071D01*
X42369893Y-26531333D01*
X42533687Y-26350710D01*
X42313838Y-26345066D01*
X42238160Y-26343028D01*
X42181803Y-26341062D01*
X42141515Y-26338733D01*
X42114044Y-26335605D01*
X42096138Y-26331244D01*
X42084546Y-26325215D01*
X42076017Y-26317083D01*
X42072432Y-26312771D01*
X42053479Y-26278240D01*
X42056250Y-26245382D01*
X42072442Y-26219317D01*
X42094008Y-26192666D01*
X42408960Y-26189351D01*
X42501588Y-26188434D01*
X42574353Y-26187967D01*
X42629970Y-26188112D01*
G37*
X42621344Y-27328608D02*
X42668595Y-27332847D01*
X42693821Y-27339935D01*
X42695797Y-27341310D01*
X42727317Y-27380227D01*
X42752279Y-27437285D01*
X42770149Y-27508868D01*
X42780395Y-27591357D01*
X42782482Y-27681138D01*
X42775877Y-27774591D01*
X42767765Y-27829555D01*
X42743363Y-27915765D01*
X42703471Y-27995891D01*
X42651696Y-28062976D01*
X42641348Y-28073172D01*
X42597844Y-28106301D01*
X42543927Y-28136193D01*
X42487401Y-28159356D01*
X42436068Y-28172297D01*
X42416353Y-28173857D01*
X42375228Y-28167217D01*
X42324061Y-28149567D01*
X42270203Y-28124296D01*
X42221004Y-28094788D01*
X42188143Y-28068718D01*
X42139261Y-28007764D01*
X42100354Y-27928968D01*
X42072303Y-27835156D01*
X42055988Y-27729149D01*
X42052001Y-27631999D01*
X42056408Y-27550080D01*
X42067904Y-27481564D01*
X42085776Y-27428942D01*
X42109308Y-27394707D01*
X42122733Y-27385378D01*
X42153957Y-27375892D01*
X42182204Y-27382276D01*
X42208991Y-27402429D01*
X42221522Y-27433744D01*
X42220505Y-27479182D01*
X42213715Y-27514325D01*
X42200780Y-27592418D01*
X42199551Y-27672225D01*
X42210050Y-27761554D01*
X42214499Y-27786228D01*
X42237917Y-27869290D01*
X42272754Y-27934272D01*
X42318413Y-27980460D01*
X42374303Y-28007144D01*
X42403197Y-28012662D01*
X42461821Y-28009050D01*
X42513688Y-27985728D01*
X42557787Y-27944823D01*
X42593108Y-27888458D01*
X42618638Y-27818759D01*
X42633368Y-27737851D01*
X42636287Y-27647859D01*
X42626384Y-27550909D01*
X42625450Y-27545435D01*
X42618268Y-27506874D01*
X42611330Y-27485493D01*
X42601036Y-27476226D01*
X42583785Y-27474005D01*
X42574650Y-27473955D01*
X42536298Y-27473955D01*
X42536298Y-27542430D01*
X42532156Y-27602899D01*
X42518956Y-27644164D01*
X42495539Y-27668174D01*
X42460745Y-27676876D01*
X42456203Y-27676982D01*
X42426463Y-27671891D01*
X42405228Y-27654432D01*
X42391175Y-27621938D01*
X42382982Y-27571742D01*
X42379970Y-27523122D01*
X42378242Y-27452455D01*
X42380879Y-27401197D01*
X42390609Y-27366238D01*
X42410162Y-27344469D01*
X42442265Y-27332779D01*
X42489647Y-27328059D01*
X42551880Y-27327199D01*
X42621344Y-27328608D01*
G36*
X42621344Y-27328608D02*
G01*
X42668595Y-27332847D01*
X42693821Y-27339935D01*
X42695797Y-27341310D01*
X42727317Y-27380227D01*
X42752279Y-27437285D01*
X42770149Y-27508868D01*
X42780395Y-27591357D01*
X42782482Y-27681138D01*
X42775877Y-27774591D01*
X42767765Y-27829555D01*
X42743363Y-27915765D01*
X42703471Y-27995891D01*
X42651696Y-28062976D01*
X42641348Y-28073172D01*
X42597844Y-28106301D01*
X42543927Y-28136193D01*
X42487401Y-28159356D01*
X42436068Y-28172297D01*
X42416353Y-28173857D01*
X42375228Y-28167217D01*
X42324061Y-28149567D01*
X42270203Y-28124296D01*
X42221004Y-28094788D01*
X42188143Y-28068718D01*
X42139261Y-28007764D01*
X42100354Y-27928968D01*
X42072303Y-27835156D01*
X42055988Y-27729149D01*
X42052001Y-27631999D01*
X42056408Y-27550080D01*
X42067904Y-27481564D01*
X42085776Y-27428942D01*
X42109308Y-27394707D01*
X42122733Y-27385378D01*
X42153957Y-27375892D01*
X42182204Y-27382276D01*
X42208991Y-27402429D01*
X42221522Y-27433744D01*
X42220505Y-27479182D01*
X42213715Y-27514325D01*
X42200780Y-27592418D01*
X42199551Y-27672225D01*
X42210050Y-27761554D01*
X42214499Y-27786228D01*
X42237917Y-27869290D01*
X42272754Y-27934272D01*
X42318413Y-27980460D01*
X42374303Y-28007144D01*
X42403197Y-28012662D01*
X42461821Y-28009050D01*
X42513688Y-27985728D01*
X42557787Y-27944823D01*
X42593108Y-27888458D01*
X42618638Y-27818759D01*
X42633368Y-27737851D01*
X42636287Y-27647859D01*
X42626384Y-27550909D01*
X42625450Y-27545435D01*
X42618268Y-27506874D01*
X42611330Y-27485493D01*
X42601036Y-27476226D01*
X42583785Y-27474005D01*
X42574650Y-27473955D01*
X42536298Y-27473955D01*
X42536298Y-27542430D01*
X42532156Y-27602899D01*
X42518956Y-27644164D01*
X42495539Y-27668174D01*
X42460745Y-27676876D01*
X42456203Y-27676982D01*
X42426463Y-27671891D01*
X42405228Y-27654432D01*
X42391175Y-27621938D01*
X42382982Y-27571742D01*
X42379970Y-27523122D01*
X42378242Y-27452455D01*
X42380879Y-27401197D01*
X42390609Y-27366238D01*
X42410162Y-27344469D01*
X42442265Y-27332779D01*
X42489647Y-27328059D01*
X42551880Y-27327199D01*
X42621344Y-27328608D01*
G37*
X42145801Y-25126868D02*
X42163312Y-25131603D01*
X42176383Y-25142666D01*
X42185722Y-25162651D01*
X42192036Y-25194153D01*
X42196031Y-25239767D01*
X42198415Y-25302086D01*
X42199895Y-25383706D01*
X42200223Y-25408722D01*
X42203276Y-25650799D01*
X42268187Y-25654185D01*
X42333098Y-25657570D01*
X42333098Y-25489423D01*
X42333340Y-25423733D01*
X42334365Y-25376827D01*
X42336620Y-25344916D01*
X42340551Y-25324208D01*
X42346607Y-25310915D01*
X42355233Y-25301244D01*
X42355302Y-25301182D01*
X42388921Y-25283643D01*
X42425257Y-25284277D01*
X42456232Y-25302685D01*
X42459416Y-25306328D01*
X42467621Y-25319258D01*
X42473330Y-25336975D01*
X42476971Y-25363429D01*
X42478976Y-25402567D01*
X42479773Y-25458337D01*
X42479854Y-25494005D01*
X42479854Y-25656444D01*
X42637898Y-25656444D01*
X42637898Y-25409838D01*
X42638040Y-25328419D01*
X42638623Y-25266589D01*
X42639877Y-25221362D01*
X42642036Y-25189751D01*
X42645332Y-25168768D01*
X42649998Y-25155426D01*
X42656266Y-25146738D01*
X42658542Y-25144549D01*
X42690089Y-25128385D01*
X42725977Y-25127202D01*
X42757094Y-25140463D01*
X42767080Y-25150956D01*
X42772578Y-25161870D01*
X42776831Y-25178782D01*
X42779989Y-25204366D01*
X42782201Y-25241298D01*
X42783615Y-25292253D01*
X42784381Y-25359905D01*
X42784647Y-25446930D01*
X42784654Y-25466605D01*
X42784596Y-25555088D01*
X42784276Y-25623772D01*
X42783476Y-25675435D01*
X42781976Y-25712854D01*
X42779558Y-25738809D01*
X42776003Y-25756077D01*
X42771091Y-25767437D01*
X42764604Y-25775667D01*
X42759947Y-25780182D01*
X42751698Y-25786978D01*
X42741478Y-25792287D01*
X42726609Y-25796293D01*
X42704411Y-25799178D01*
X42672202Y-25801125D01*
X42627305Y-25802318D01*
X42567037Y-25802938D01*
X42488720Y-25803170D01*
X42422803Y-25803199D01*
X42330437Y-25803128D01*
X42257926Y-25802791D01*
X42202546Y-25802001D01*
X42161574Y-25800573D01*
X42132287Y-25798320D01*
X42111962Y-25795056D01*
X42097875Y-25790595D01*
X42087304Y-25784751D01*
X42080620Y-25779802D01*
X42050876Y-25756405D01*
X42050876Y-25466225D01*
X42051069Y-25369656D01*
X42051983Y-25293298D01*
X42054120Y-25234782D01*
X42057984Y-25191744D01*
X42064076Y-25161816D01*
X42072899Y-25142631D01*
X42084955Y-25131823D01*
X42100748Y-25127026D01*
X42120779Y-25125872D01*
X42123144Y-25125866D01*
X42145801Y-25126868D01*
G36*
X42145801Y-25126868D02*
G01*
X42163312Y-25131603D01*
X42176383Y-25142666D01*
X42185722Y-25162651D01*
X42192036Y-25194153D01*
X42196031Y-25239767D01*
X42198415Y-25302086D01*
X42199895Y-25383706D01*
X42200223Y-25408722D01*
X42203276Y-25650799D01*
X42268187Y-25654185D01*
X42333098Y-25657570D01*
X42333098Y-25489423D01*
X42333340Y-25423733D01*
X42334365Y-25376827D01*
X42336620Y-25344916D01*
X42340551Y-25324208D01*
X42346607Y-25310915D01*
X42355233Y-25301244D01*
X42355302Y-25301182D01*
X42388921Y-25283643D01*
X42425257Y-25284277D01*
X42456232Y-25302685D01*
X42459416Y-25306328D01*
X42467621Y-25319258D01*
X42473330Y-25336975D01*
X42476971Y-25363429D01*
X42478976Y-25402567D01*
X42479773Y-25458337D01*
X42479854Y-25494005D01*
X42479854Y-25656444D01*
X42637898Y-25656444D01*
X42637898Y-25409838D01*
X42638040Y-25328419D01*
X42638623Y-25266589D01*
X42639877Y-25221362D01*
X42642036Y-25189751D01*
X42645332Y-25168768D01*
X42649998Y-25155426D01*
X42656266Y-25146738D01*
X42658542Y-25144549D01*
X42690089Y-25128385D01*
X42725977Y-25127202D01*
X42757094Y-25140463D01*
X42767080Y-25150956D01*
X42772578Y-25161870D01*
X42776831Y-25178782D01*
X42779989Y-25204366D01*
X42782201Y-25241298D01*
X42783615Y-25292253D01*
X42784381Y-25359905D01*
X42784647Y-25446930D01*
X42784654Y-25466605D01*
X42784596Y-25555088D01*
X42784276Y-25623772D01*
X42783476Y-25675435D01*
X42781976Y-25712854D01*
X42779558Y-25738809D01*
X42776003Y-25756077D01*
X42771091Y-25767437D01*
X42764604Y-25775667D01*
X42759947Y-25780182D01*
X42751698Y-25786978D01*
X42741478Y-25792287D01*
X42726609Y-25796293D01*
X42704411Y-25799178D01*
X42672202Y-25801125D01*
X42627305Y-25802318D01*
X42567037Y-25802938D01*
X42488720Y-25803170D01*
X42422803Y-25803199D01*
X42330437Y-25803128D01*
X42257926Y-25802791D01*
X42202546Y-25802001D01*
X42161574Y-25800573D01*
X42132287Y-25798320D01*
X42111962Y-25795056D01*
X42097875Y-25790595D01*
X42087304Y-25784751D01*
X42080620Y-25779802D01*
X42050876Y-25756405D01*
X42050876Y-25466225D01*
X42051069Y-25369656D01*
X42051983Y-25293298D01*
X42054120Y-25234782D01*
X42057984Y-25191744D01*
X42064076Y-25161816D01*
X42072899Y-25142631D01*
X42084955Y-25131823D01*
X42100748Y-25127026D01*
X42120779Y-25125872D01*
X42123144Y-25125866D01*
X42145801Y-25126868D01*
G37*
X42740476Y-30066962D02*
X42762076Y-30081688D01*
X42768875Y-30089545D01*
X42774155Y-30099687D01*
X42778107Y-30114843D01*
X42780922Y-30137740D01*
X42782791Y-30171108D01*
X42783907Y-30217674D01*
X42784460Y-30280166D01*
X42784642Y-30361313D01*
X42784654Y-30403421D01*
X42784574Y-30493597D01*
X42784207Y-30563923D01*
X42783361Y-30617128D01*
X42781845Y-30655939D01*
X42779468Y-30683086D01*
X42776038Y-30701297D01*
X42771363Y-30713299D01*
X42765253Y-30721821D01*
X42762076Y-30725155D01*
X42754479Y-30731754D01*
X42744679Y-30736926D01*
X42730048Y-30740845D01*
X42707961Y-30743683D01*
X42675791Y-30745614D01*
X42630912Y-30746811D01*
X42570698Y-30747447D01*
X42492522Y-30747696D01*
X42419732Y-30747733D01*
X42326516Y-30747699D01*
X42253240Y-30747464D01*
X42197267Y-30746829D01*
X42155960Y-30745593D01*
X42126681Y-30743555D01*
X42106793Y-30740516D01*
X42093659Y-30736276D01*
X42084641Y-30730634D01*
X42077102Y-30723390D01*
X42075421Y-30721605D01*
X42067981Y-30712944D01*
X42062218Y-30702881D01*
X42057921Y-30688624D01*
X42054873Y-30667382D01*
X42052860Y-30636363D01*
X42051669Y-30592776D01*
X42051084Y-30533830D01*
X42050892Y-30456733D01*
X42050876Y-30402000D01*
X42050955Y-30312793D01*
X42051327Y-30243385D01*
X42052194Y-30190996D01*
X42053755Y-30152846D01*
X42056212Y-30126158D01*
X42059766Y-30108152D01*
X42064619Y-30096048D01*
X42070970Y-30087068D01*
X42073893Y-30083817D01*
X42104951Y-30064042D01*
X42140637Y-30060481D01*
X42172319Y-30073490D01*
X42178722Y-30079505D01*
X42184930Y-30089234D01*
X42189719Y-30104900D01*
X42193323Y-30129407D01*
X42195973Y-30165660D01*
X42197904Y-30216564D01*
X42199348Y-30285025D01*
X42200227Y-30347616D01*
X42203276Y-30595333D01*
X42268187Y-30598718D01*
X42333098Y-30602104D01*
X42333098Y-30433957D01*
X42333728Y-30360958D01*
X42336362Y-30307516D01*
X42342118Y-30270627D01*
X42352113Y-30247287D01*
X42367465Y-30234493D01*
X42389291Y-30229241D01*
X42409547Y-30228444D01*
X42434401Y-30230922D01*
X42452715Y-30240276D01*
X42465446Y-30259382D01*
X42473550Y-30291117D01*
X42477985Y-30338358D01*
X42479708Y-30403982D01*
X42479854Y-30439800D01*
X42479854Y-30600977D01*
X42637898Y-30600977D01*
X42637898Y-30352621D01*
X42638011Y-30271212D01*
X42638521Y-30209341D01*
X42639679Y-30163967D01*
X42641739Y-30132053D01*
X42644955Y-30110558D01*
X42649581Y-30096442D01*
X42655868Y-30086667D01*
X42660476Y-30081688D01*
X42687369Y-30064609D01*
X42711276Y-30059110D01*
X42740476Y-30066962D01*
G36*
X42740476Y-30066962D02*
G01*
X42762076Y-30081688D01*
X42768875Y-30089545D01*
X42774155Y-30099687D01*
X42778107Y-30114843D01*
X42780922Y-30137740D01*
X42782791Y-30171108D01*
X42783907Y-30217674D01*
X42784460Y-30280166D01*
X42784642Y-30361313D01*
X42784654Y-30403421D01*
X42784574Y-30493597D01*
X42784207Y-30563923D01*
X42783361Y-30617128D01*
X42781845Y-30655939D01*
X42779468Y-30683086D01*
X42776038Y-30701297D01*
X42771363Y-30713299D01*
X42765253Y-30721821D01*
X42762076Y-30725155D01*
X42754479Y-30731754D01*
X42744679Y-30736926D01*
X42730048Y-30740845D01*
X42707961Y-30743683D01*
X42675791Y-30745614D01*
X42630912Y-30746811D01*
X42570698Y-30747447D01*
X42492522Y-30747696D01*
X42419732Y-30747733D01*
X42326516Y-30747699D01*
X42253240Y-30747464D01*
X42197267Y-30746829D01*
X42155960Y-30745593D01*
X42126681Y-30743555D01*
X42106793Y-30740516D01*
X42093659Y-30736276D01*
X42084641Y-30730634D01*
X42077102Y-30723390D01*
X42075421Y-30721605D01*
X42067981Y-30712944D01*
X42062218Y-30702881D01*
X42057921Y-30688624D01*
X42054873Y-30667382D01*
X42052860Y-30636363D01*
X42051669Y-30592776D01*
X42051084Y-30533830D01*
X42050892Y-30456733D01*
X42050876Y-30402000D01*
X42050955Y-30312793D01*
X42051327Y-30243385D01*
X42052194Y-30190996D01*
X42053755Y-30152846D01*
X42056212Y-30126158D01*
X42059766Y-30108152D01*
X42064619Y-30096048D01*
X42070970Y-30087068D01*
X42073893Y-30083817D01*
X42104951Y-30064042D01*
X42140637Y-30060481D01*
X42172319Y-30073490D01*
X42178722Y-30079505D01*
X42184930Y-30089234D01*
X42189719Y-30104900D01*
X42193323Y-30129407D01*
X42195973Y-30165660D01*
X42197904Y-30216564D01*
X42199348Y-30285025D01*
X42200227Y-30347616D01*
X42203276Y-30595333D01*
X42268187Y-30598718D01*
X42333098Y-30602104D01*
X42333098Y-30433957D01*
X42333728Y-30360958D01*
X42336362Y-30307516D01*
X42342118Y-30270627D01*
X42352113Y-30247287D01*
X42367465Y-30234493D01*
X42389291Y-30229241D01*
X42409547Y-30228444D01*
X42434401Y-30230922D01*
X42452715Y-30240276D01*
X42465446Y-30259382D01*
X42473550Y-30291117D01*
X42477985Y-30338358D01*
X42479708Y-30403982D01*
X42479854Y-30439800D01*
X42479854Y-30600977D01*
X42637898Y-30600977D01*
X42637898Y-30352621D01*
X42638011Y-30271212D01*
X42638521Y-30209341D01*
X42639679Y-30163967D01*
X42641739Y-30132053D01*
X42644955Y-30110558D01*
X42649581Y-30096442D01*
X42655868Y-30086667D01*
X42660476Y-30081688D01*
X42687369Y-30064609D01*
X42711276Y-30059110D01*
X42740476Y-30066962D01*
G37*
X42124170Y-21791003D02*
X42142704Y-21795038D01*
X42169066Y-21803853D01*
X42205561Y-21818330D01*
X42254496Y-21839354D01*
X42318174Y-21867811D01*
X42398902Y-21904584D01*
X42443025Y-21924824D01*
X42521794Y-21961374D01*
X42594232Y-21995684D01*
X42657689Y-22026447D01*
X42709517Y-22052351D01*
X42747068Y-22072089D01*
X42767693Y-22084349D01*
X42770542Y-22086775D01*
X42783111Y-22117816D01*
X42781428Y-22152878D01*
X42766141Y-22180999D01*
X42764898Y-22182145D01*
X42747963Y-22193331D01*
X42714979Y-22212095D01*
X42670189Y-22236124D01*
X42617841Y-22263102D01*
X42598551Y-22272798D01*
X42451959Y-22345985D01*
X42611202Y-22425759D01*
X42666224Y-22454232D01*
X42713941Y-22480649D01*
X42750702Y-22502851D01*
X42772853Y-22518680D01*
X42777550Y-22524045D01*
X42783911Y-22565742D01*
X42770542Y-22600150D01*
X42756255Y-22610271D01*
X42724501Y-22627785D01*
X42678406Y-22651264D01*
X42621094Y-22679279D01*
X42555689Y-22710400D01*
X42485316Y-22743200D01*
X42413100Y-22776249D01*
X42342164Y-22808118D01*
X42275634Y-22837380D01*
X42216635Y-22862604D01*
X42168290Y-22882363D01*
X42133724Y-22895227D01*
X42116062Y-22899768D01*
X42115422Y-22899722D01*
X42093197Y-22888673D01*
X42070562Y-22866589D01*
X42069577Y-22865289D01*
X42054234Y-22838146D01*
X42054383Y-22813041D01*
X42057275Y-22803631D01*
X42063527Y-22792165D01*
X42075823Y-22779989D01*
X42096717Y-22765642D01*
X42128758Y-22747663D01*
X42174497Y-22724592D01*
X42236486Y-22694969D01*
X42293707Y-22668254D01*
X42360035Y-22637519D01*
X42419683Y-22609978D01*
X42469534Y-22587061D01*
X42506473Y-22570201D01*
X42527382Y-22560826D01*
X42530654Y-22559459D01*
X42525306Y-22553310D01*
X42502918Y-22539177D01*
X42466755Y-22518942D01*
X42420086Y-22494484D01*
X42400831Y-22484751D01*
X42335813Y-22451782D01*
X42288463Y-22426356D01*
X42256028Y-22406387D01*
X42235755Y-22389789D01*
X42224891Y-22374475D01*
X42220684Y-22358359D01*
X42220209Y-22347856D01*
X42221851Y-22329329D01*
X42228640Y-22313095D01*
X42243375Y-22296964D01*
X42268853Y-22278748D01*
X42307870Y-22256260D01*
X42363223Y-22227310D01*
X42394712Y-22211337D01*
X42444896Y-22185429D01*
X42486513Y-22162832D01*
X42516051Y-22145541D01*
X42529998Y-22135549D01*
X42530579Y-22134190D01*
X42519602Y-22127738D01*
X42491099Y-22113291D01*
X42448053Y-22092296D01*
X42393447Y-22066202D01*
X42330263Y-22036453D01*
X42298880Y-22021819D01*
X42217887Y-21983749D01*
X42155565Y-21953094D01*
X42109880Y-21928262D01*
X42078798Y-21907662D01*
X42060287Y-21889701D01*
X42052313Y-21872789D01*
X42052843Y-21855334D01*
X42059844Y-21835744D01*
X42060186Y-21834989D01*
X42080487Y-21808386D01*
X42101370Y-21793729D01*
X42111161Y-21790861D01*
X42124170Y-21791003D01*
G36*
X42124170Y-21791003D02*
G01*
X42142704Y-21795038D01*
X42169066Y-21803853D01*
X42205561Y-21818330D01*
X42254496Y-21839354D01*
X42318174Y-21867811D01*
X42398902Y-21904584D01*
X42443025Y-21924824D01*
X42521794Y-21961374D01*
X42594232Y-21995684D01*
X42657689Y-22026447D01*
X42709517Y-22052351D01*
X42747068Y-22072089D01*
X42767693Y-22084349D01*
X42770542Y-22086775D01*
X42783111Y-22117816D01*
X42781428Y-22152878D01*
X42766141Y-22180999D01*
X42764898Y-22182145D01*
X42747963Y-22193331D01*
X42714979Y-22212095D01*
X42670189Y-22236124D01*
X42617841Y-22263102D01*
X42598551Y-22272798D01*
X42451959Y-22345985D01*
X42611202Y-22425759D01*
X42666224Y-22454232D01*
X42713941Y-22480649D01*
X42750702Y-22502851D01*
X42772853Y-22518680D01*
X42777550Y-22524045D01*
X42783911Y-22565742D01*
X42770542Y-22600150D01*
X42756255Y-22610271D01*
X42724501Y-22627785D01*
X42678406Y-22651264D01*
X42621094Y-22679279D01*
X42555689Y-22710400D01*
X42485316Y-22743200D01*
X42413100Y-22776249D01*
X42342164Y-22808118D01*
X42275634Y-22837380D01*
X42216635Y-22862604D01*
X42168290Y-22882363D01*
X42133724Y-22895227D01*
X42116062Y-22899768D01*
X42115422Y-22899722D01*
X42093197Y-22888673D01*
X42070562Y-22866589D01*
X42069577Y-22865289D01*
X42054234Y-22838146D01*
X42054383Y-22813041D01*
X42057275Y-22803631D01*
X42063527Y-22792165D01*
X42075823Y-22779989D01*
X42096717Y-22765642D01*
X42128758Y-22747663D01*
X42174497Y-22724592D01*
X42236486Y-22694969D01*
X42293707Y-22668254D01*
X42360035Y-22637519D01*
X42419683Y-22609978D01*
X42469534Y-22587061D01*
X42506473Y-22570201D01*
X42527382Y-22560826D01*
X42530654Y-22559459D01*
X42525306Y-22553310D01*
X42502918Y-22539177D01*
X42466755Y-22518942D01*
X42420086Y-22494484D01*
X42400831Y-22484751D01*
X42335813Y-22451782D01*
X42288463Y-22426356D01*
X42256028Y-22406387D01*
X42235755Y-22389789D01*
X42224891Y-22374475D01*
X42220684Y-22358359D01*
X42220209Y-22347856D01*
X42221851Y-22329329D01*
X42228640Y-22313095D01*
X42243375Y-22296964D01*
X42268853Y-22278748D01*
X42307870Y-22256260D01*
X42363223Y-22227310D01*
X42394712Y-22211337D01*
X42444896Y-22185429D01*
X42486513Y-22162832D01*
X42516051Y-22145541D01*
X42529998Y-22135549D01*
X42530579Y-22134190D01*
X42519602Y-22127738D01*
X42491099Y-22113291D01*
X42448053Y-22092296D01*
X42393447Y-22066202D01*
X42330263Y-22036453D01*
X42298880Y-22021819D01*
X42217887Y-21983749D01*
X42155565Y-21953094D01*
X42109880Y-21928262D01*
X42078798Y-21907662D01*
X42060287Y-21889701D01*
X42052313Y-21872789D01*
X42052843Y-21855334D01*
X42059844Y-21835744D01*
X42060186Y-21834989D01*
X42080487Y-21808386D01*
X42101370Y-21793729D01*
X42111161Y-21790861D01*
X42124170Y-21791003D01*
G37*
X42609521Y-28989575D02*
X42639068Y-29001201D01*
X42665295Y-29021322D01*
X42705385Y-29062215D01*
X42735958Y-29107816D01*
X42758012Y-29161512D01*
X42772544Y-29226691D01*
X42780550Y-29306743D01*
X42783027Y-29405056D01*
X42782986Y-29421288D01*
X42781627Y-29486848D01*
X42778539Y-29551865D01*
X42774165Y-29609251D01*
X42768949Y-29651921D01*
X42768350Y-29655371D01*
X42758300Y-29697795D01*
X42745605Y-29733779D01*
X42733999Y-29754149D01*
X42703381Y-29773106D01*
X42667727Y-29774426D01*
X42635953Y-29758084D01*
X42632360Y-29754428D01*
X42621685Y-29739314D01*
X42617085Y-29720414D01*
X42617868Y-29691161D01*
X42621936Y-29655650D01*
X42625571Y-29615969D01*
X42628637Y-29560344D01*
X42630862Y-29495405D01*
X42631973Y-29427784D01*
X42632046Y-29409999D01*
X42631773Y-29342127D01*
X42630455Y-29292453D01*
X42627636Y-29256609D01*
X42622859Y-29230223D01*
X42615666Y-29208925D01*
X42609676Y-29196125D01*
X42593042Y-29167999D01*
X42577977Y-29150067D01*
X42573706Y-29147446D01*
X42556072Y-29152975D01*
X42539001Y-29179259D01*
X42523267Y-29224477D01*
X42509647Y-29286807D01*
X42506613Y-29305170D01*
X42491547Y-29401089D01*
X42478955Y-29477640D01*
X42467920Y-29537779D01*
X42457529Y-29584459D01*
X42446865Y-29620636D01*
X42435014Y-29649264D01*
X42421060Y-29673297D01*
X42404090Y-29695691D01*
X42383187Y-29719401D01*
X42375858Y-29727379D01*
X42348508Y-29755352D01*
X42326838Y-29770159D01*
X42302041Y-29775951D01*
X42270792Y-29776888D01*
X42209514Y-29766574D01*
X42157449Y-29735751D01*
X42114767Y-29684594D01*
X42081634Y-29613282D01*
X42066773Y-29562399D01*
X42057175Y-29507099D01*
X42051745Y-29440852D01*
X42050176Y-29367705D01*
X42052160Y-29291702D01*
X42057390Y-29216887D01*
X42065559Y-29147305D01*
X42076359Y-29087001D01*
X42089482Y-29040019D01*
X42104622Y-29010405D01*
X42109078Y-29005859D01*
X42143659Y-28990053D01*
X42179160Y-28994846D01*
X42209534Y-29019363D01*
X42210405Y-29020533D01*
X42219763Y-29034953D01*
X42224685Y-29050007D01*
X42225282Y-29071004D01*
X42221670Y-29103256D01*
X42213963Y-29152072D01*
X42213314Y-29155999D01*
X42204378Y-29228738D01*
X42199970Y-29307216D01*
X42199928Y-29385926D01*
X42204088Y-29459360D01*
X42212288Y-29522010D01*
X42224366Y-29568369D01*
X42225580Y-29571415D01*
X42244424Y-29605047D01*
X42263494Y-29616863D01*
X42282248Y-29607613D01*
X42300146Y-29578046D01*
X42316646Y-29528910D01*
X42331205Y-29460956D01*
X42338215Y-29415644D01*
X42351698Y-29321455D01*
X42364023Y-29246543D01*
X42376258Y-29187716D01*
X42389470Y-29141784D01*
X42404726Y-29105554D01*
X42423094Y-29075837D01*
X42445640Y-29049441D01*
X42467780Y-29028229D01*
X42498628Y-29003064D01*
X42525154Y-28990680D01*
X42557835Y-28986807D01*
X42569804Y-28986666D01*
X42609521Y-28989575D01*
G36*
X42609521Y-28989575D02*
G01*
X42639068Y-29001201D01*
X42665295Y-29021322D01*
X42705385Y-29062215D01*
X42735958Y-29107816D01*
X42758012Y-29161512D01*
X42772544Y-29226691D01*
X42780550Y-29306743D01*
X42783027Y-29405056D01*
X42782986Y-29421288D01*
X42781627Y-29486848D01*
X42778539Y-29551865D01*
X42774165Y-29609251D01*
X42768949Y-29651921D01*
X42768350Y-29655371D01*
X42758300Y-29697795D01*
X42745605Y-29733779D01*
X42733999Y-29754149D01*
X42703381Y-29773106D01*
X42667727Y-29774426D01*
X42635953Y-29758084D01*
X42632360Y-29754428D01*
X42621685Y-29739314D01*
X42617085Y-29720414D01*
X42617868Y-29691161D01*
X42621936Y-29655650D01*
X42625571Y-29615969D01*
X42628637Y-29560344D01*
X42630862Y-29495405D01*
X42631973Y-29427784D01*
X42632046Y-29409999D01*
X42631773Y-29342127D01*
X42630455Y-29292453D01*
X42627636Y-29256609D01*
X42622859Y-29230223D01*
X42615666Y-29208925D01*
X42609676Y-29196125D01*
X42593042Y-29167999D01*
X42577977Y-29150067D01*
X42573706Y-29147446D01*
X42556072Y-29152975D01*
X42539001Y-29179259D01*
X42523267Y-29224477D01*
X42509647Y-29286807D01*
X42506613Y-29305170D01*
X42491547Y-29401089D01*
X42478955Y-29477640D01*
X42467920Y-29537779D01*
X42457529Y-29584459D01*
X42446865Y-29620636D01*
X42435014Y-29649264D01*
X42421060Y-29673297D01*
X42404090Y-29695691D01*
X42383187Y-29719401D01*
X42375858Y-29727379D01*
X42348508Y-29755352D01*
X42326838Y-29770159D01*
X42302041Y-29775951D01*
X42270792Y-29776888D01*
X42209514Y-29766574D01*
X42157449Y-29735751D01*
X42114767Y-29684594D01*
X42081634Y-29613282D01*
X42066773Y-29562399D01*
X42057175Y-29507099D01*
X42051745Y-29440852D01*
X42050176Y-29367705D01*
X42052160Y-29291702D01*
X42057390Y-29216887D01*
X42065559Y-29147305D01*
X42076359Y-29087001D01*
X42089482Y-29040019D01*
X42104622Y-29010405D01*
X42109078Y-29005859D01*
X42143659Y-28990053D01*
X42179160Y-28994846D01*
X42209534Y-29019363D01*
X42210405Y-29020533D01*
X42219763Y-29034953D01*
X42224685Y-29050007D01*
X42225282Y-29071004D01*
X42221670Y-29103256D01*
X42213963Y-29152072D01*
X42213314Y-29155999D01*
X42204378Y-29228738D01*
X42199970Y-29307216D01*
X42199928Y-29385926D01*
X42204088Y-29459360D01*
X42212288Y-29522010D01*
X42224366Y-29568369D01*
X42225580Y-29571415D01*
X42244424Y-29605047D01*
X42263494Y-29616863D01*
X42282248Y-29607613D01*
X42300146Y-29578046D01*
X42316646Y-29528910D01*
X42331205Y-29460956D01*
X42338215Y-29415644D01*
X42351698Y-29321455D01*
X42364023Y-29246543D01*
X42376258Y-29187716D01*
X42389470Y-29141784D01*
X42404726Y-29105554D01*
X42423094Y-29075837D01*
X42445640Y-29049441D01*
X42467780Y-29028229D01*
X42498628Y-29003064D01*
X42525154Y-28990680D01*
X42557835Y-28986807D01*
X42569804Y-28986666D01*
X42609521Y-28989575D01*
G37*
X40938527Y-24341853D02*
X40955808Y-24367432D01*
X40979092Y-24407126D01*
X41006743Y-24457702D01*
X41037124Y-24515925D01*
X41068599Y-24578562D01*
X41099531Y-24642378D01*
X41128282Y-24704139D01*
X41153217Y-24760611D01*
X41172698Y-24808561D01*
X41181127Y-24832013D01*
X41218942Y-24965778D01*
X41243945Y-25103672D01*
X41256949Y-25251377D01*
X41259277Y-25378166D01*
X41258182Y-25446121D01*
X41256084Y-25511722D01*
X41253243Y-25569152D01*
X41249915Y-25612596D01*
X41248231Y-25626701D01*
X41219396Y-25765715D01*
X41174277Y-25907242D01*
X41115559Y-26044724D01*
X41045929Y-26171605D01*
X40993250Y-26249110D01*
X40885048Y-26376518D01*
X40758480Y-26494821D01*
X40616675Y-26601827D01*
X40462760Y-26695347D01*
X40299862Y-26773189D01*
X40182565Y-26817043D01*
X39998937Y-26867291D01*
X39804390Y-26900790D01*
X39603134Y-26917550D01*
X39399377Y-26917583D01*
X39197330Y-26900898D01*
X39001201Y-26867506D01*
X38815200Y-26817419D01*
X38803612Y-26813602D01*
X38641559Y-26750718D01*
X38493641Y-26673971D01*
X38355674Y-26580757D01*
X38223470Y-26468472D01*
X38178208Y-26424607D01*
X38054266Y-26288465D01*
X37951724Y-26148508D01*
X37869465Y-26002588D01*
X37806373Y-25848557D01*
X37761332Y-25684267D01*
X37743842Y-25588710D01*
X37728275Y-25429976D01*
X37730880Y-25271570D01*
X37752054Y-25111429D01*
X37792194Y-24947489D01*
X37851698Y-24777686D01*
X37930963Y-24599956D01*
X37936508Y-24588689D01*
X37964534Y-24530994D01*
X37988611Y-24479447D01*
X38007058Y-24437808D01*
X38018195Y-24409837D01*
X38020742Y-24400266D01*
X38025750Y-24381049D01*
X38029956Y-24376438D01*
X38040389Y-24381541D01*
X38066677Y-24397581D01*
X38106066Y-24422711D01*
X38155800Y-24455085D01*
X38213124Y-24492856D01*
X38275285Y-24534177D01*
X38339527Y-24577201D01*
X38403094Y-24620082D01*
X38463234Y-24660973D01*
X38517189Y-24698028D01*
X38562206Y-24729399D01*
X38595530Y-24753240D01*
X38614406Y-24767705D01*
X38616596Y-24769690D01*
X38611947Y-24779808D01*
X38594771Y-24802149D01*
X38568249Y-24832719D01*
X38553773Y-24848463D01*
X38478491Y-24944952D01*
X38423050Y-25051663D01*
X38387950Y-25167167D01*
X38373689Y-25290037D01*
X38374860Y-25359438D01*
X38392021Y-25480576D01*
X38427903Y-25589794D01*
X38482768Y-25687417D01*
X38556879Y-25773771D01*
X38650497Y-25849184D01*
X38763885Y-25913981D01*
X38850476Y-25951398D01*
X38986175Y-25995251D01*
X39133659Y-26027571D01*
X39289123Y-26048442D01*
X39448765Y-26057948D01*
X39608782Y-26056172D01*
X39765370Y-26043196D01*
X39914727Y-26019105D01*
X40053049Y-25983981D01*
X40176533Y-25937907D01*
X40210787Y-25921626D01*
X40324873Y-25853379D01*
X40421366Y-25772920D01*
X40499479Y-25681429D01*
X40558426Y-25580088D01*
X40597421Y-25470079D01*
X40615677Y-25352584D01*
X40617020Y-25311116D01*
X40606099Y-25189558D01*
X40573283Y-25069121D01*
X40519248Y-24951333D01*
X40444674Y-24837722D01*
X40366348Y-24746314D01*
X40321817Y-24699784D01*
X40619080Y-24518516D01*
X40693242Y-24473419D01*
X40761455Y-24432180D01*
X40821268Y-24396264D01*
X40870229Y-24367133D01*
X40905888Y-24346249D01*
X40925793Y-24335075D01*
X40928888Y-24333624D01*
X40938527Y-24341853D01*
G36*
X40938527Y-24341853D02*
G01*
X40955808Y-24367432D01*
X40979092Y-24407126D01*
X41006743Y-24457702D01*
X41037124Y-24515925D01*
X41068599Y-24578562D01*
X41099531Y-24642378D01*
X41128282Y-24704139D01*
X41153217Y-24760611D01*
X41172698Y-24808561D01*
X41181127Y-24832013D01*
X41218942Y-24965778D01*
X41243945Y-25103672D01*
X41256949Y-25251377D01*
X41259277Y-25378166D01*
X41258182Y-25446121D01*
X41256084Y-25511722D01*
X41253243Y-25569152D01*
X41249915Y-25612596D01*
X41248231Y-25626701D01*
X41219396Y-25765715D01*
X41174277Y-25907242D01*
X41115559Y-26044724D01*
X41045929Y-26171605D01*
X40993250Y-26249110D01*
X40885048Y-26376518D01*
X40758480Y-26494821D01*
X40616675Y-26601827D01*
X40462760Y-26695347D01*
X40299862Y-26773189D01*
X40182565Y-26817043D01*
X39998937Y-26867291D01*
X39804390Y-26900790D01*
X39603134Y-26917550D01*
X39399377Y-26917583D01*
X39197330Y-26900898D01*
X39001201Y-26867506D01*
X38815200Y-26817419D01*
X38803612Y-26813602D01*
X38641559Y-26750718D01*
X38493641Y-26673971D01*
X38355674Y-26580757D01*
X38223470Y-26468472D01*
X38178208Y-26424607D01*
X38054266Y-26288465D01*
X37951724Y-26148508D01*
X37869465Y-26002588D01*
X37806373Y-25848557D01*
X37761332Y-25684267D01*
X37743842Y-25588710D01*
X37728275Y-25429976D01*
X37730880Y-25271570D01*
X37752054Y-25111429D01*
X37792194Y-24947489D01*
X37851698Y-24777686D01*
X37930963Y-24599956D01*
X37936508Y-24588689D01*
X37964534Y-24530994D01*
X37988611Y-24479447D01*
X38007058Y-24437808D01*
X38018195Y-24409837D01*
X38020742Y-24400266D01*
X38025750Y-24381049D01*
X38029956Y-24376438D01*
X38040389Y-24381541D01*
X38066677Y-24397581D01*
X38106066Y-24422711D01*
X38155800Y-24455085D01*
X38213124Y-24492856D01*
X38275285Y-24534177D01*
X38339527Y-24577201D01*
X38403094Y-24620082D01*
X38463234Y-24660973D01*
X38517189Y-24698028D01*
X38562206Y-24729399D01*
X38595530Y-24753240D01*
X38614406Y-24767705D01*
X38616596Y-24769690D01*
X38611947Y-24779808D01*
X38594771Y-24802149D01*
X38568249Y-24832719D01*
X38553773Y-24848463D01*
X38478491Y-24944952D01*
X38423050Y-25051663D01*
X38387950Y-25167167D01*
X38373689Y-25290037D01*
X38374860Y-25359438D01*
X38392021Y-25480576D01*
X38427903Y-25589794D01*
X38482768Y-25687417D01*
X38556879Y-25773771D01*
X38650497Y-25849184D01*
X38763885Y-25913981D01*
X38850476Y-25951398D01*
X38986175Y-25995251D01*
X39133659Y-26027571D01*
X39289123Y-26048442D01*
X39448765Y-26057948D01*
X39608782Y-26056172D01*
X39765370Y-26043196D01*
X39914727Y-26019105D01*
X40053049Y-25983981D01*
X40176533Y-25937907D01*
X40210787Y-25921626D01*
X40324873Y-25853379D01*
X40421366Y-25772920D01*
X40499479Y-25681429D01*
X40558426Y-25580088D01*
X40597421Y-25470079D01*
X40615677Y-25352584D01*
X40617020Y-25311116D01*
X40606099Y-25189558D01*
X40573283Y-25069121D01*
X40519248Y-24951333D01*
X40444674Y-24837722D01*
X40366348Y-24746314D01*
X40321817Y-24699784D01*
X40619080Y-24518516D01*
X40693242Y-24473419D01*
X40761455Y-24432180D01*
X40821268Y-24396264D01*
X40870229Y-24367133D01*
X40905888Y-24346249D01*
X40925793Y-24335075D01*
X40928888Y-24333624D01*
X40938527Y-24341853D01*
G37*
X41215498Y-20170044D02*
X41119542Y-20170044D01*
X41076179Y-20170775D01*
X41043014Y-20172727D01*
X41025233Y-20175536D01*
X41023587Y-20176778D01*
X41030471Y-20188200D01*
X41048314Y-20210915D01*
X41067688Y-20233614D01*
X41108423Y-20288199D01*
X41149426Y-20357678D01*
X41186932Y-20434729D01*
X41217173Y-20512034D01*
X41226821Y-20542886D01*
X41241387Y-20611383D01*
X41251348Y-20694235D01*
X41256392Y-20783628D01*
X41256205Y-20871751D01*
X41250475Y-20950792D01*
X41244667Y-20988488D01*
X41206606Y-21126585D01*
X41148882Y-21253886D01*
X41072020Y-21369707D01*
X40976548Y-21473362D01*
X40862988Y-21564166D01*
X40752190Y-21630968D01*
X40635434Y-21685835D01*
X40516085Y-21727836D01*
X40390092Y-21757832D01*
X40253403Y-21776688D01*
X40101967Y-21785267D01*
X40024520Y-21785993D01*
X39967743Y-21783899D01*
X39811704Y-21778142D01*
X39615868Y-21756197D01*
X39437141Y-21720213D01*
X39275654Y-21670240D01*
X39131535Y-21606331D01*
X39004915Y-21528537D01*
X38895924Y-21436910D01*
X38804692Y-21331502D01*
X38773741Y-21286337D01*
X38717594Y-21185388D01*
X38677983Y-21082098D01*
X38653823Y-20972010D01*
X38644028Y-20850669D01*
X38645074Y-20758163D01*
X38656040Y-20628509D01*
X38675040Y-20530442D01*
X39229274Y-20530442D01*
X39232531Y-20611783D01*
X39251424Y-20684619D01*
X39266993Y-20716573D01*
X39309990Y-20774498D01*
X39366762Y-20823455D01*
X39439384Y-20864609D01*
X39529930Y-20899125D01*
X39640475Y-20928166D01*
X39646342Y-20929447D01*
X39708597Y-20939618D01*
X39786403Y-20947260D01*
X39874529Y-20952329D01*
X39967743Y-20954782D01*
X40060811Y-20954575D01*
X40148501Y-20951662D01*
X40225581Y-20945999D01*
X40286818Y-20937544D01*
X40299159Y-20934961D01*
X40406442Y-20903159D01*
X40493467Y-20861501D01*
X40560451Y-20809636D01*
X40607614Y-20747218D01*
X40635174Y-20673899D01*
X40643350Y-20589330D01*
X40632360Y-20493164D01*
X40616638Y-20429688D01*
X40598448Y-20380545D01*
X40572600Y-20326416D01*
X40548898Y-20285755D01*
X40502530Y-20215199D01*
X39352339Y-20215199D01*
X39308771Y-20282607D01*
X39267849Y-20361132D01*
X39241198Y-20445318D01*
X39229274Y-20530442D01*
X38675040Y-20530442D01*
X38677855Y-20515915D01*
X38711523Y-20417124D01*
X38758045Y-20328878D01*
X38792257Y-20280013D01*
X38814171Y-20250646D01*
X38829142Y-20228956D01*
X38833542Y-20220746D01*
X38822713Y-20219131D01*
X38792060Y-20217840D01*
X38744335Y-20216861D01*
X38682288Y-20216182D01*
X38608671Y-20215789D01*
X38526236Y-20215669D01*
X38437734Y-20215811D01*
X38345916Y-20216202D01*
X38253533Y-20216828D01*
X38163337Y-20217679D01*
X38078080Y-20218739D01*
X38000512Y-20219998D01*
X37933385Y-20221443D01*
X37879450Y-20223061D01*
X37841459Y-20224838D01*
X37834476Y-20225330D01*
X37764060Y-20232907D01*
X37708911Y-20244468D01*
X37661790Y-20262207D01*
X37615456Y-20288317D01*
X37605876Y-20294584D01*
X37569187Y-20319016D01*
X37569187Y-19413688D01*
X39254054Y-19413492D01*
X39488471Y-19413473D01*
X39701412Y-19413447D01*
X39893977Y-19413374D01*
X40067268Y-19413217D01*
X40222385Y-19412935D01*
X40360429Y-19412490D01*
X40482501Y-19411843D01*
X40589703Y-19410954D01*
X40683135Y-19409786D01*
X40763899Y-19408298D01*
X40833095Y-19406453D01*
X40891824Y-19404210D01*
X40941188Y-19401530D01*
X40982287Y-19398376D01*
X41016222Y-19394707D01*
X41044095Y-19390486D01*
X41067007Y-19385672D01*
X41086058Y-19380226D01*
X41102349Y-19374111D01*
X41116982Y-19367287D01*
X41131058Y-19359714D01*
X41145677Y-19351354D01*
X41154783Y-19346160D01*
X41215498Y-19311895D01*
X41215498Y-20170044D01*
G36*
X41215498Y-20170044D02*
G01*
X41119542Y-20170044D01*
X41076179Y-20170775D01*
X41043014Y-20172727D01*
X41025233Y-20175536D01*
X41023587Y-20176778D01*
X41030471Y-20188200D01*
X41048314Y-20210915D01*
X41067688Y-20233614D01*
X41108423Y-20288199D01*
X41149426Y-20357678D01*
X41186932Y-20434729D01*
X41217173Y-20512034D01*
X41226821Y-20542886D01*
X41241387Y-20611383D01*
X41251348Y-20694235D01*
X41256392Y-20783628D01*
X41256205Y-20871751D01*
X41250475Y-20950792D01*
X41244667Y-20988488D01*
X41206606Y-21126585D01*
X41148882Y-21253886D01*
X41072020Y-21369707D01*
X40976548Y-21473362D01*
X40862988Y-21564166D01*
X40752190Y-21630968D01*
X40635434Y-21685835D01*
X40516085Y-21727836D01*
X40390092Y-21757832D01*
X40253403Y-21776688D01*
X40101967Y-21785267D01*
X40024520Y-21785993D01*
X39967743Y-21783899D01*
X39811704Y-21778142D01*
X39615868Y-21756197D01*
X39437141Y-21720213D01*
X39275654Y-21670240D01*
X39131535Y-21606331D01*
X39004915Y-21528537D01*
X38895924Y-21436910D01*
X38804692Y-21331502D01*
X38773741Y-21286337D01*
X38717594Y-21185388D01*
X38677983Y-21082098D01*
X38653823Y-20972010D01*
X38644028Y-20850669D01*
X38645074Y-20758163D01*
X38656040Y-20628509D01*
X38675040Y-20530442D01*
X39229274Y-20530442D01*
X39232531Y-20611783D01*
X39251424Y-20684619D01*
X39266993Y-20716573D01*
X39309990Y-20774498D01*
X39366762Y-20823455D01*
X39439384Y-20864609D01*
X39529930Y-20899125D01*
X39640475Y-20928166D01*
X39646342Y-20929447D01*
X39708597Y-20939618D01*
X39786403Y-20947260D01*
X39874529Y-20952329D01*
X39967743Y-20954782D01*
X40060811Y-20954575D01*
X40148501Y-20951662D01*
X40225581Y-20945999D01*
X40286818Y-20937544D01*
X40299159Y-20934961D01*
X40406442Y-20903159D01*
X40493467Y-20861501D01*
X40560451Y-20809636D01*
X40607614Y-20747218D01*
X40635174Y-20673899D01*
X40643350Y-20589330D01*
X40632360Y-20493164D01*
X40616638Y-20429688D01*
X40598448Y-20380545D01*
X40572600Y-20326416D01*
X40548898Y-20285755D01*
X40502530Y-20215199D01*
X39352339Y-20215199D01*
X39308771Y-20282607D01*
X39267849Y-20361132D01*
X39241198Y-20445318D01*
X39229274Y-20530442D01*
X38675040Y-20530442D01*
X38677855Y-20515915D01*
X38711523Y-20417124D01*
X38758045Y-20328878D01*
X38792257Y-20280013D01*
X38814171Y-20250646D01*
X38829142Y-20228956D01*
X38833542Y-20220746D01*
X38822713Y-20219131D01*
X38792060Y-20217840D01*
X38744335Y-20216861D01*
X38682288Y-20216182D01*
X38608671Y-20215789D01*
X38526236Y-20215669D01*
X38437734Y-20215811D01*
X38345916Y-20216202D01*
X38253533Y-20216828D01*
X38163337Y-20217679D01*
X38078080Y-20218739D01*
X38000512Y-20219998D01*
X37933385Y-20221443D01*
X37879450Y-20223061D01*
X37841459Y-20224838D01*
X37834476Y-20225330D01*
X37764060Y-20232907D01*
X37708911Y-20244468D01*
X37661790Y-20262207D01*
X37615456Y-20288317D01*
X37605876Y-20294584D01*
X37569187Y-20319016D01*
X37569187Y-19413688D01*
X39254054Y-19413492D01*
X39488471Y-19413473D01*
X39701412Y-19413447D01*
X39893977Y-19413374D01*
X40067268Y-19413217D01*
X40222385Y-19412935D01*
X40360429Y-19412490D01*
X40482501Y-19411843D01*
X40589703Y-19410954D01*
X40683135Y-19409786D01*
X40763899Y-19408298D01*
X40833095Y-19406453D01*
X40891824Y-19404210D01*
X40941188Y-19401530D01*
X40982287Y-19398376D01*
X41016222Y-19394707D01*
X41044095Y-19390486D01*
X41067007Y-19385672D01*
X41086058Y-19380226D01*
X41102349Y-19374111D01*
X41116982Y-19367287D01*
X41131058Y-19359714D01*
X41145677Y-19351354D01*
X41154783Y-19346160D01*
X41215498Y-19311895D01*
X41215498Y-20170044D01*
G37*
X41207930Y-21998432D02*
X41209956Y-22029417D01*
X41211751Y-22078042D01*
X41213260Y-22141836D01*
X41214425Y-22218330D01*
X41215189Y-22305055D01*
X41215495Y-22399542D01*
X41215498Y-22410449D01*
X41215498Y-22833342D01*
X41119431Y-22836604D01*
X41023365Y-22839866D01*
X41074352Y-22901955D01*
X41141866Y-22999285D01*
X41196558Y-23109186D01*
X41226787Y-23195650D01*
X41241475Y-23264721D01*
X41251468Y-23348074D01*
X41256455Y-23437840D01*
X41256122Y-23526154D01*
X41250160Y-23605148D01*
X41244447Y-23641377D01*
X41206585Y-23781396D01*
X41151741Y-23907821D01*
X41080733Y-24019739D01*
X40994377Y-24116237D01*
X40893488Y-24196399D01*
X40778885Y-24259312D01*
X40652793Y-24303687D01*
X40596210Y-24316021D01*
X40534011Y-24323631D01*
X40459172Y-24327260D01*
X40425276Y-24327754D01*
X40422091Y-24327689D01*
X40331521Y-24325821D01*
X40252621Y-24317477D01*
X40181399Y-24301231D01*
X40110673Y-24275594D01*
X40058302Y-24251598D01*
X39963005Y-24192979D01*
X39874979Y-24114882D01*
X39795826Y-24019684D01*
X39727149Y-23909761D01*
X39670550Y-23787489D01*
X39627630Y-23655244D01*
X39612691Y-23590577D01*
X39590586Y-23454395D01*
X39576003Y-23305950D01*
X39569622Y-23154494D01*
X39570919Y-23053893D01*
X40093651Y-23053893D01*
X40098905Y-23174669D01*
X40115072Y-23277339D01*
X40142770Y-23363893D01*
X40182617Y-23436318D01*
X40229567Y-23491248D01*
X40287454Y-23535795D01*
X40350502Y-23560519D01*
X40422091Y-23567751D01*
X40497142Y-23558458D01*
X40560969Y-23530271D01*
X40616607Y-23481802D01*
X40621020Y-23476745D01*
X40655846Y-23428451D01*
X40678429Y-23376742D01*
X40690349Y-23316010D01*
X40693192Y-23240647D01*
X40692787Y-23222540D01*
X40690134Y-23168721D01*
X40684718Y-23128691D01*
X40674554Y-23093675D01*
X40657659Y-23054896D01*
X40652481Y-23044254D01*
X40616653Y-22983603D01*
X40574021Y-22936784D01*
X40558782Y-22924047D01*
X40502271Y-22879377D01*
X40306395Y-22879377D01*
X40227748Y-22879913D01*
X40169797Y-22881603D01*
X40130684Y-22884571D01*
X40108550Y-22888942D01*
X40102083Y-22893027D01*
X40098920Y-22908952D01*
X40096297Y-22942735D01*
X40094464Y-22989659D01*
X40093666Y-23045006D01*
X40093651Y-23053893D01*
X39570919Y-23053893D01*
X39571254Y-23027935D01*
X39578033Y-22866049D01*
X39519054Y-22873469D01*
X39419901Y-22892761D01*
X39339181Y-22923895D01*
X39276275Y-22967730D01*
X39230565Y-23025128D01*
X39201431Y-23096951D01*
X39188256Y-23184058D01*
X39190420Y-23287313D01*
X39194421Y-23325288D01*
X39219589Y-23466479D01*
X39260623Y-23603292D01*
X39298624Y-23697821D01*
X39317999Y-23742981D01*
X39333569Y-23781414D01*
X39343214Y-23807765D01*
X39345261Y-23815453D01*
X39336183Y-23825197D01*
X39307214Y-23841916D01*
X39258026Y-23865767D01*
X39188293Y-23896906D01*
X39097688Y-23935492D01*
X39081898Y-23942089D01*
X39009581Y-23972146D01*
X38944234Y-23999125D01*
X38888715Y-24021863D01*
X38845881Y-24039193D01*
X38818590Y-24049951D01*
X38809751Y-24053058D01*
X38804996Y-24043059D01*
X38799719Y-24016782D01*
X38796040Y-23988510D01*
X38791283Y-23958353D01*
X38781837Y-23910566D01*
X38768629Y-23849387D01*
X38752585Y-23779053D01*
X38734629Y-23703805D01*
X38727606Y-23675244D01*
X38702018Y-23570183D01*
X38681956Y-23482519D01*
X38666778Y-23407931D01*
X38655844Y-23342096D01*
X38648513Y-23280692D01*
X38644144Y-23219397D01*
X38642096Y-23153889D01*
X38641698Y-23095871D01*
X38648361Y-22926425D01*
X38668376Y-22774507D01*
X38702011Y-22639243D01*
X38749534Y-22519760D01*
X38811214Y-22415184D01*
X38874774Y-22337575D01*
X38948908Y-22268734D01*
X39028680Y-22214993D01*
X39120900Y-22172089D01*
X39163970Y-22156615D01*
X39202951Y-22143755D01*
X39239098Y-22132553D01*
X39274243Y-22122879D01*
X39310219Y-22114603D01*
X39348859Y-22107596D01*
X39391994Y-22101727D01*
X39441458Y-22096868D01*
X39499082Y-22092889D01*
X39566700Y-22089659D01*
X39646143Y-22087050D01*
X39739245Y-22084932D01*
X39847836Y-22083175D01*
X39973751Y-22081650D01*
X40118821Y-22080227D01*
X40261587Y-22078974D01*
X40417777Y-22077648D01*
X40553048Y-22076443D01*
X40669055Y-22075233D01*
X40767454Y-22073893D01*
X40849902Y-22072299D01*
X40918055Y-22070324D01*
X40973569Y-22067843D01*
X41018101Y-22064730D01*
X41053307Y-22060861D01*
X41080843Y-22056110D01*
X41102365Y-22050351D01*
X41119531Y-22043460D01*
X41133995Y-22035310D01*
X41147415Y-22025776D01*
X41161447Y-22014733D01*
X41166880Y-22010433D01*
X41189719Y-21994613D01*
X41205272Y-21987577D01*
X41205731Y-21987555D01*
X41207930Y-21998432D01*
G36*
X41207930Y-21998432D02*
G01*
X41209956Y-22029417D01*
X41211751Y-22078042D01*
X41213260Y-22141836D01*
X41214425Y-22218330D01*
X41215189Y-22305055D01*
X41215495Y-22399542D01*
X41215498Y-22410449D01*
X41215498Y-22833342D01*
X41119431Y-22836604D01*
X41023365Y-22839866D01*
X41074352Y-22901955D01*
X41141866Y-22999285D01*
X41196558Y-23109186D01*
X41226787Y-23195650D01*
X41241475Y-23264721D01*
X41251468Y-23348074D01*
X41256455Y-23437840D01*
X41256122Y-23526154D01*
X41250160Y-23605148D01*
X41244447Y-23641377D01*
X41206585Y-23781396D01*
X41151741Y-23907821D01*
X41080733Y-24019739D01*
X40994377Y-24116237D01*
X40893488Y-24196399D01*
X40778885Y-24259312D01*
X40652793Y-24303687D01*
X40596210Y-24316021D01*
X40534011Y-24323631D01*
X40459172Y-24327260D01*
X40425276Y-24327754D01*
X40422091Y-24327689D01*
X40331521Y-24325821D01*
X40252621Y-24317477D01*
X40181399Y-24301231D01*
X40110673Y-24275594D01*
X40058302Y-24251598D01*
X39963005Y-24192979D01*
X39874979Y-24114882D01*
X39795826Y-24019684D01*
X39727149Y-23909761D01*
X39670550Y-23787489D01*
X39627630Y-23655244D01*
X39612691Y-23590577D01*
X39590586Y-23454395D01*
X39576003Y-23305950D01*
X39569622Y-23154494D01*
X39570919Y-23053893D01*
X40093651Y-23053893D01*
X40098905Y-23174669D01*
X40115072Y-23277339D01*
X40142770Y-23363893D01*
X40182617Y-23436318D01*
X40229567Y-23491248D01*
X40287454Y-23535795D01*
X40350502Y-23560519D01*
X40422091Y-23567751D01*
X40497142Y-23558458D01*
X40560969Y-23530271D01*
X40616607Y-23481802D01*
X40621020Y-23476745D01*
X40655846Y-23428451D01*
X40678429Y-23376742D01*
X40690349Y-23316010D01*
X40693192Y-23240647D01*
X40692787Y-23222540D01*
X40690134Y-23168721D01*
X40684718Y-23128691D01*
X40674554Y-23093675D01*
X40657659Y-23054896D01*
X40652481Y-23044254D01*
X40616653Y-22983603D01*
X40574021Y-22936784D01*
X40558782Y-22924047D01*
X40502271Y-22879377D01*
X40306395Y-22879377D01*
X40227748Y-22879913D01*
X40169797Y-22881603D01*
X40130684Y-22884571D01*
X40108550Y-22888942D01*
X40102083Y-22893027D01*
X40098920Y-22908952D01*
X40096297Y-22942735D01*
X40094464Y-22989659D01*
X40093666Y-23045006D01*
X40093651Y-23053893D01*
X39570919Y-23053893D01*
X39571254Y-23027935D01*
X39578033Y-22866049D01*
X39519054Y-22873469D01*
X39419901Y-22892761D01*
X39339181Y-22923895D01*
X39276275Y-22967730D01*
X39230565Y-23025128D01*
X39201431Y-23096951D01*
X39188256Y-23184058D01*
X39190420Y-23287313D01*
X39194421Y-23325288D01*
X39219589Y-23466479D01*
X39260623Y-23603292D01*
X39298624Y-23697821D01*
X39317999Y-23742981D01*
X39333569Y-23781414D01*
X39343214Y-23807765D01*
X39345261Y-23815453D01*
X39336183Y-23825197D01*
X39307214Y-23841916D01*
X39258026Y-23865767D01*
X39188293Y-23896906D01*
X39097688Y-23935492D01*
X39081898Y-23942089D01*
X39009581Y-23972146D01*
X38944234Y-23999125D01*
X38888715Y-24021863D01*
X38845881Y-24039193D01*
X38818590Y-24049951D01*
X38809751Y-24053058D01*
X38804996Y-24043059D01*
X38799719Y-24016782D01*
X38796040Y-23988510D01*
X38791283Y-23958353D01*
X38781837Y-23910566D01*
X38768629Y-23849387D01*
X38752585Y-23779053D01*
X38734629Y-23703805D01*
X38727606Y-23675244D01*
X38702018Y-23570183D01*
X38681956Y-23482519D01*
X38666778Y-23407931D01*
X38655844Y-23342096D01*
X38648513Y-23280692D01*
X38644144Y-23219397D01*
X38642096Y-23153889D01*
X38641698Y-23095871D01*
X38648361Y-22926425D01*
X38668376Y-22774507D01*
X38702011Y-22639243D01*
X38749534Y-22519760D01*
X38811214Y-22415184D01*
X38874774Y-22337575D01*
X38948908Y-22268734D01*
X39028680Y-22214993D01*
X39120900Y-22172089D01*
X39163970Y-22156615D01*
X39202951Y-22143755D01*
X39239098Y-22132553D01*
X39274243Y-22122879D01*
X39310219Y-22114603D01*
X39348859Y-22107596D01*
X39391994Y-22101727D01*
X39441458Y-22096868D01*
X39499082Y-22092889D01*
X39566700Y-22089659D01*
X39646143Y-22087050D01*
X39739245Y-22084932D01*
X39847836Y-22083175D01*
X39973751Y-22081650D01*
X40118821Y-22080227D01*
X40261587Y-22078974D01*
X40417777Y-22077648D01*
X40553048Y-22076443D01*
X40669055Y-22075233D01*
X40767454Y-22073893D01*
X40849902Y-22072299D01*
X40918055Y-22070324D01*
X40973569Y-22067843D01*
X41018101Y-22064730D01*
X41053307Y-22060861D01*
X41080843Y-22056110D01*
X41102365Y-22050351D01*
X41119531Y-22043460D01*
X41133995Y-22035310D01*
X41147415Y-22025776D01*
X41161447Y-22014733D01*
X41166880Y-22010433D01*
X41189719Y-21994613D01*
X41205272Y-21987577D01*
X41205731Y-21987555D01*
X41207930Y-21998432D01*
G37*
X39704548Y-27157875D02*
X39945050Y-27157907D01*
X40164857Y-27157971D01*
X40364910Y-27158075D01*
X40546153Y-27158226D01*
X40709525Y-27158433D01*
X40855969Y-27158705D01*
X40986426Y-27159049D01*
X41101838Y-27159473D01*
X41203147Y-27159986D01*
X41291293Y-27160596D01*
X41367219Y-27161311D01*
X41431866Y-27162139D01*
X41486176Y-27163088D01*
X41531089Y-27164166D01*
X41567549Y-27165382D01*
X41596496Y-27166744D01*
X41618872Y-27168260D01*
X41635618Y-27169937D01*
X41647677Y-27171785D01*
X41655989Y-27173812D01*
X41661496Y-27176024D01*
X41663346Y-27177107D01*
X41670358Y-27181270D01*
X41676805Y-27184804D01*
X41682709Y-27188634D01*
X41688095Y-27193681D01*
X41692987Y-27200870D01*
X41697407Y-27211122D01*
X41701381Y-27225363D01*
X41704930Y-27244513D01*
X41708079Y-27269498D01*
X41710851Y-27301239D01*
X41713270Y-27340661D01*
X41715360Y-27388685D01*
X41717144Y-27446236D01*
X41718646Y-27514236D01*
X41719889Y-27593609D01*
X41720898Y-27685278D01*
X41721694Y-27790165D01*
X41722303Y-27909195D01*
X41722748Y-28043289D01*
X41723052Y-28193372D01*
X41723239Y-28360366D01*
X41723333Y-28545195D01*
X41723357Y-28748782D01*
X41723334Y-28972049D01*
X41723289Y-29215921D01*
X41723246Y-29481320D01*
X41723241Y-29519703D01*
X41723198Y-29786681D01*
X41723127Y-30032001D01*
X41723022Y-30256582D01*
X41722875Y-30461344D01*
X41722678Y-30647205D01*
X41722425Y-30815087D01*
X41722109Y-30965907D01*
X41721722Y-31100586D01*
X41721256Y-31220043D01*
X41720706Y-31325198D01*
X41720062Y-31416970D01*
X41719320Y-31496278D01*
X41718470Y-31564042D01*
X41717506Y-31621181D01*
X41716420Y-31668616D01*
X41715206Y-31707265D01*
X41713856Y-31738048D01*
X41712364Y-31761884D01*
X41710720Y-31779693D01*
X41708920Y-31792394D01*
X41706954Y-31800907D01*
X41705286Y-31805265D01*
X41701715Y-31813727D01*
X41699079Y-31821496D01*
X41696443Y-31828601D01*
X41692871Y-31835072D01*
X41687430Y-31840938D01*
X41679184Y-31846228D01*
X41667199Y-31850973D01*
X41650540Y-31855201D01*
X41628272Y-31858942D01*
X41599461Y-31862226D01*
X41563172Y-31865082D01*
X41518470Y-31867539D01*
X41464420Y-31869628D01*
X41400088Y-31871377D01*
X41324539Y-31872816D01*
X41236839Y-31873975D01*
X41136052Y-31874882D01*
X41021243Y-31875568D01*
X40891479Y-31876062D01*
X40745824Y-31876394D01*
X40583344Y-31876592D01*
X40403104Y-31876686D01*
X40204169Y-31876707D01*
X39985605Y-31876684D01*
X39746477Y-31876645D01*
X39485849Y-31876621D01*
X39443698Y-31876621D01*
X39180801Y-31876635D01*
X38939541Y-31876660D01*
X38718974Y-31876670D01*
X38518161Y-31876641D01*
X38336158Y-31876547D01*
X38172025Y-31876361D01*
X38024820Y-31876058D01*
X37893601Y-31875613D01*
X37783676Y-31875033D01*
X37777426Y-31875000D01*
X37675353Y-31874194D01*
X37586442Y-31873169D01*
X37509750Y-31871899D01*
X37444336Y-31870359D01*
X37389258Y-31868523D01*
X37343574Y-31866366D01*
X37306343Y-31863862D01*
X37276622Y-31860986D01*
X37253471Y-31857712D01*
X37235948Y-31854014D01*
X37223110Y-31849868D01*
X37214017Y-31845246D01*
X37207727Y-31840125D01*
X37203297Y-31834477D01*
X37199787Y-31828278D01*
X37196254Y-31821503D01*
X37192685Y-31815507D01*
X37190109Y-31810274D01*
X37187781Y-31802098D01*
X37185687Y-31789885D01*
X37183816Y-31772540D01*
X37182156Y-31748968D01*
X37180693Y-31718076D01*
X37179417Y-31678767D01*
X37178313Y-31629949D01*
X37177370Y-31570526D01*
X37176576Y-31499403D01*
X37175918Y-31415487D01*
X37175384Y-31317682D01*
X37174962Y-31204893D01*
X37174638Y-31076028D01*
X37174401Y-30929990D01*
X37174239Y-30765685D01*
X37174139Y-30582019D01*
X37174089Y-30377896D01*
X37174076Y-30166752D01*
X37174076Y-29774115D01*
X37783676Y-29774115D01*
X37831653Y-29768826D01*
X37888997Y-29772129D01*
X37957272Y-29793660D01*
X38037021Y-29833634D01*
X38109304Y-29878942D01*
X38131949Y-29895160D01*
X38169505Y-29923213D01*
X38219830Y-29961429D01*
X38280782Y-30008136D01*
X38350220Y-30061660D01*
X38426003Y-30120330D01*
X38505989Y-30182474D01*
X38588037Y-30246420D01*
X38670005Y-30310494D01*
X38749752Y-30373026D01*
X38825136Y-30432342D01*
X38894016Y-30486770D01*
X38954251Y-30534638D01*
X39003698Y-30574274D01*
X39040217Y-30604005D01*
X39061667Y-30622160D01*
X39064965Y-30625219D01*
X39056958Y-30628078D01*
X39026664Y-30630292D01*
X38974365Y-30631856D01*
X38900340Y-30632766D01*
X38804872Y-30633019D01*
X38688243Y-30632612D01*
X38568254Y-30631703D01*
X38436142Y-30630381D01*
X38324403Y-30628856D01*
X38230834Y-30626880D01*
X38153228Y-30624205D01*
X38089383Y-30620581D01*
X38037092Y-30615760D01*
X37994153Y-30609493D01*
X37958360Y-30601531D01*
X37927509Y-30591626D01*
X37899395Y-30579530D01*
X37871814Y-30564992D01*
X37846775Y-30550310D01*
X37783676Y-30512313D01*
X37783676Y-31572196D01*
X37841520Y-31532406D01*
X37857288Y-31521235D01*
X37871250Y-31511165D01*
X37884593Y-31502137D01*
X37898502Y-31494096D01*
X37914165Y-31486985D01*
X37932767Y-31480746D01*
X37955495Y-31475324D01*
X37983536Y-31470661D01*
X38018076Y-31466700D01*
X38060301Y-31463384D01*
X38111398Y-31460658D01*
X38172553Y-31458463D01*
X38244953Y-31456744D01*
X38329784Y-31455443D01*
X38428231Y-31454504D01*
X38541483Y-31453869D01*
X38670725Y-31453483D01*
X38817143Y-31453287D01*
X38981925Y-31453226D01*
X39166256Y-31453242D01*
X39371322Y-31453279D01*
X39493942Y-31453288D01*
X39710891Y-31453264D01*
X39906451Y-31453230D01*
X40081808Y-31453242D01*
X40238150Y-31453357D01*
X40376666Y-31453629D01*
X40498543Y-31454117D01*
X40604969Y-31454875D01*
X40697131Y-31455961D01*
X40776218Y-31457430D01*
X40843417Y-31459339D01*
X40899916Y-31461743D01*
X40946902Y-31464700D01*
X40985564Y-31468265D01*
X41017089Y-31472494D01*
X41042664Y-31477445D01*
X41063479Y-31483172D01*
X41080720Y-31489732D01*
X41095574Y-31497182D01*
X41109231Y-31505578D01*
X41122878Y-31514975D01*
X41137702Y-31525431D01*
X41146592Y-31531522D01*
X41204209Y-31570295D01*
X41204209Y-31038731D01*
X41204174Y-30915482D01*
X41204024Y-30812986D01*
X41203687Y-30729419D01*
X41203095Y-30662955D01*
X41202176Y-30611770D01*
X41200860Y-30574040D01*
X41199078Y-30547939D01*
X41196760Y-30531643D01*
X41193835Y-30523327D01*
X41190233Y-30521167D01*
X41185884Y-30523338D01*
X41184454Y-30524534D01*
X41147382Y-30549684D01*
X41094581Y-30575582D01*
X41032579Y-30599191D01*
X41006166Y-30607460D01*
X40988225Y-30612077D01*
X40967164Y-30615978D01*
X40940898Y-30619247D01*
X40907341Y-30621965D01*
X40864408Y-30624214D01*
X40810013Y-30626076D01*
X40742071Y-30627635D01*
X40658497Y-30628971D01*
X40557204Y-30630168D01*
X40436109Y-30631307D01*
X40391409Y-30631684D01*
X40266258Y-30632701D01*
X40161891Y-30633459D01*
X40076516Y-30633902D01*
X40008342Y-30633969D01*
X39955574Y-30633604D01*
X39916423Y-30632747D01*
X39889094Y-30631340D01*
X39871795Y-30629324D01*
X39862735Y-30626642D01*
X39860121Y-30623235D01*
X39862160Y-30619043D01*
X39866476Y-30614570D01*
X39879411Y-30604215D01*
X39908485Y-30582157D01*
X39951568Y-30549956D01*
X40006527Y-30509173D01*
X40071232Y-30461369D01*
X40143551Y-30408104D01*
X40221353Y-30350939D01*
X40302507Y-30291436D01*
X40384881Y-30231154D01*
X40466345Y-30171654D01*
X40544766Y-30114497D01*
X40618013Y-30061244D01*
X40683956Y-30013456D01*
X40740463Y-29972692D01*
X40785402Y-29940515D01*
X40816643Y-29918484D01*
X40823275Y-29913916D01*
X40860178Y-29890995D01*
X40908168Y-29864187D01*
X40957706Y-29838788D01*
X40964386Y-29835567D01*
X41012581Y-29813889D01*
X41050143Y-29801303D01*
X41085969Y-29795573D01*
X41128009Y-29794455D01*
X41204209Y-29795089D01*
X41204209Y-28640650D01*
X41110478Y-28731814D01*
X41060584Y-28778611D01*
X41004104Y-28828898D01*
X40949835Y-28874943D01*
X40924482Y-28895368D01*
X40884937Y-28925806D01*
X40831725Y-28965861D01*
X40766476Y-29014360D01*
X40690820Y-29070134D01*
X40606386Y-29132010D01*
X40514803Y-29198818D01*
X40417701Y-29269386D01*
X40316710Y-29342544D01*
X40213459Y-29417120D01*
X40109577Y-29491943D01*
X40006694Y-29565842D01*
X39906440Y-29637645D01*
X39810445Y-29706183D01*
X39720336Y-29770283D01*
X39637745Y-29828774D01*
X39564301Y-29880485D01*
X39501633Y-29924246D01*
X39451370Y-29958884D01*
X39415143Y-29983229D01*
X39394580Y-29996110D01*
X39390477Y-29997868D01*
X39379151Y-29989909D01*
X39351971Y-29969114D01*
X39310638Y-29936846D01*
X39256853Y-29894469D01*
X39192315Y-29843346D01*
X39118727Y-29784840D01*
X39037787Y-29720313D01*
X38951197Y-29651130D01*
X38860657Y-29578652D01*
X38767869Y-29504245D01*
X38693511Y-29444516D01*
X38674531Y-29429269D01*
X38582346Y-29355089D01*
X38493013Y-29283068D01*
X38408233Y-29214568D01*
X38329707Y-29150954D01*
X38259135Y-29093587D01*
X38198218Y-29043832D01*
X38148656Y-29003051D01*
X38127987Y-28985887D01*
X38027325Y-28899595D01*
X37944068Y-28822996D01*
X37876247Y-28754182D01*
X37821898Y-28691247D01*
X37814531Y-28681866D01*
X37783926Y-28642355D01*
X37783676Y-29774115D01*
X37174076Y-29774115D01*
X37174076Y-28546399D01*
X37270863Y-28546399D01*
X37384802Y-28535534D01*
X37492425Y-28503917D01*
X37591424Y-28453014D01*
X37679493Y-28384292D01*
X37754325Y-28299218D01*
X37812193Y-28202231D01*
X37851814Y-28095963D01*
X37870382Y-27988949D01*
X37869243Y-27883299D01*
X37849739Y-27781124D01*
X37813215Y-27684533D01*
X37761014Y-27595637D01*
X37716058Y-27542194D01*
X38686787Y-27542194D01*
X38686787Y-27987852D01*
X38686951Y-28085669D01*
X38687420Y-28176063D01*
X38688156Y-28256629D01*
X38689125Y-28324961D01*
X38690289Y-28378655D01*
X38691612Y-28415304D01*
X38693058Y-28432503D01*
X38693511Y-28433510D01*
X38706468Y-28427601D01*
X38728717Y-28413271D01*
X38730200Y-28412224D01*
X38760353Y-28393437D01*
X38797184Y-28373790D01*
X38805320Y-28369891D01*
X38813749Y-28366355D01*
X38823868Y-28363229D01*
X38837069Y-28360485D01*
X38854747Y-28358091D01*
X38878293Y-28356018D01*
X38909102Y-28354234D01*
X38948566Y-28352711D01*
X38998078Y-28351418D01*
X39059032Y-28350325D01*
X39132820Y-28349402D01*
X39220837Y-28348618D01*
X39324474Y-28347944D01*
X39445125Y-28347349D01*
X39584183Y-28346804D01*
X39743041Y-28346278D01*
X39921898Y-28345744D01*
X40107016Y-28345205D01*
X40270954Y-28344771D01*
X40415112Y-28344508D01*
X40540888Y-28344483D01*
X40649680Y-28344764D01*
X40742886Y-28345418D01*
X40821906Y-28346513D01*
X40888137Y-28348117D01*
X40942979Y-28350296D01*
X40987830Y-28353118D01*
X41024087Y-28356650D01*
X41053150Y-28360960D01*
X41076418Y-28366116D01*
X41095288Y-28372184D01*
X41111160Y-28379232D01*
X41125431Y-28387328D01*
X41139500Y-28396539D01*
X41151967Y-28405039D01*
X41178261Y-28422175D01*
X41195846Y-28432321D01*
X41199066Y-28433510D01*
X41200143Y-28422603D01*
X41201144Y-28391410D01*
X41202044Y-28342222D01*
X41202819Y-28277332D01*
X41203446Y-28199029D01*
X41203900Y-28109606D01*
X41204158Y-28011355D01*
X41204209Y-27942444D01*
X41203989Y-27837451D01*
X41203357Y-27740609D01*
X41202358Y-27654106D01*
X41201036Y-27580131D01*
X41199435Y-27520873D01*
X41197600Y-27478519D01*
X41195574Y-27455259D01*
X41194302Y-27451377D01*
X41179400Y-27459075D01*
X41171369Y-27467073D01*
X41154243Y-27480245D01*
X41123992Y-27497484D01*
X41099431Y-27509406D01*
X41040520Y-27536044D01*
X39863654Y-27539119D01*
X38686787Y-27542194D01*
X37716058Y-27542194D01*
X37694482Y-27516545D01*
X37614961Y-27449368D01*
X37523796Y-27396216D01*
X37422332Y-27359198D01*
X37311911Y-27340426D01*
X37262015Y-27338488D01*
X37174076Y-27338488D01*
X37174076Y-27286559D01*
X37176920Y-27250252D01*
X37188720Y-27223354D01*
X37212458Y-27196248D01*
X37250840Y-27157866D01*
X39442411Y-27157866D01*
X39704548Y-27157875D01*
G36*
X39704548Y-27157875D02*
G01*
X39945050Y-27157907D01*
X40164857Y-27157971D01*
X40364910Y-27158075D01*
X40546153Y-27158226D01*
X40709525Y-27158433D01*
X40855969Y-27158705D01*
X40986426Y-27159049D01*
X41101838Y-27159473D01*
X41203147Y-27159986D01*
X41291293Y-27160596D01*
X41367219Y-27161311D01*
X41431866Y-27162139D01*
X41486176Y-27163088D01*
X41531089Y-27164166D01*
X41567549Y-27165382D01*
X41596496Y-27166744D01*
X41618872Y-27168260D01*
X41635618Y-27169937D01*
X41647677Y-27171785D01*
X41655989Y-27173812D01*
X41661496Y-27176024D01*
X41663346Y-27177107D01*
X41670358Y-27181270D01*
X41676805Y-27184804D01*
X41682709Y-27188634D01*
X41688095Y-27193681D01*
X41692987Y-27200870D01*
X41697407Y-27211122D01*
X41701381Y-27225363D01*
X41704930Y-27244513D01*
X41708079Y-27269498D01*
X41710851Y-27301239D01*
X41713270Y-27340661D01*
X41715360Y-27388685D01*
X41717144Y-27446236D01*
X41718646Y-27514236D01*
X41719889Y-27593609D01*
X41720898Y-27685278D01*
X41721694Y-27790165D01*
X41722303Y-27909195D01*
X41722748Y-28043289D01*
X41723052Y-28193372D01*
X41723239Y-28360366D01*
X41723333Y-28545195D01*
X41723357Y-28748782D01*
X41723334Y-28972049D01*
X41723289Y-29215921D01*
X41723246Y-29481320D01*
X41723241Y-29519703D01*
X41723198Y-29786681D01*
X41723127Y-30032001D01*
X41723022Y-30256582D01*
X41722875Y-30461344D01*
X41722678Y-30647205D01*
X41722425Y-30815087D01*
X41722109Y-30965907D01*
X41721722Y-31100586D01*
X41721256Y-31220043D01*
X41720706Y-31325198D01*
X41720062Y-31416970D01*
X41719320Y-31496278D01*
X41718470Y-31564042D01*
X41717506Y-31621181D01*
X41716420Y-31668616D01*
X41715206Y-31707265D01*
X41713856Y-31738048D01*
X41712364Y-31761884D01*
X41710720Y-31779693D01*
X41708920Y-31792394D01*
X41706954Y-31800907D01*
X41705286Y-31805265D01*
X41701715Y-31813727D01*
X41699079Y-31821496D01*
X41696443Y-31828601D01*
X41692871Y-31835072D01*
X41687430Y-31840938D01*
X41679184Y-31846228D01*
X41667199Y-31850973D01*
X41650540Y-31855201D01*
X41628272Y-31858942D01*
X41599461Y-31862226D01*
X41563172Y-31865082D01*
X41518470Y-31867539D01*
X41464420Y-31869628D01*
X41400088Y-31871377D01*
X41324539Y-31872816D01*
X41236839Y-31873975D01*
X41136052Y-31874882D01*
X41021243Y-31875568D01*
X40891479Y-31876062D01*
X40745824Y-31876394D01*
X40583344Y-31876592D01*
X40403104Y-31876686D01*
X40204169Y-31876707D01*
X39985605Y-31876684D01*
X39746477Y-31876645D01*
X39485849Y-31876621D01*
X39443698Y-31876621D01*
X39180801Y-31876635D01*
X38939541Y-31876660D01*
X38718974Y-31876670D01*
X38518161Y-31876641D01*
X38336158Y-31876547D01*
X38172025Y-31876361D01*
X38024820Y-31876058D01*
X37893601Y-31875613D01*
X37783676Y-31875033D01*
X37777426Y-31875000D01*
X37675353Y-31874194D01*
X37586442Y-31873169D01*
X37509750Y-31871899D01*
X37444336Y-31870359D01*
X37389258Y-31868523D01*
X37343574Y-31866366D01*
X37306343Y-31863862D01*
X37276622Y-31860986D01*
X37253471Y-31857712D01*
X37235948Y-31854014D01*
X37223110Y-31849868D01*
X37214017Y-31845246D01*
X37207727Y-31840125D01*
X37203297Y-31834477D01*
X37199787Y-31828278D01*
X37196254Y-31821503D01*
X37192685Y-31815507D01*
X37190109Y-31810274D01*
X37187781Y-31802098D01*
X37185687Y-31789885D01*
X37183816Y-31772540D01*
X37182156Y-31748968D01*
X37180693Y-31718076D01*
X37179417Y-31678767D01*
X37178313Y-31629949D01*
X37177370Y-31570526D01*
X37176576Y-31499403D01*
X37175918Y-31415487D01*
X37175384Y-31317682D01*
X37174962Y-31204893D01*
X37174638Y-31076028D01*
X37174401Y-30929990D01*
X37174239Y-30765685D01*
X37174139Y-30582019D01*
X37174089Y-30377896D01*
X37174076Y-30166752D01*
X37174076Y-29774115D01*
X37783676Y-29774115D01*
X37831653Y-29768826D01*
X37888997Y-29772129D01*
X37957272Y-29793660D01*
X38037021Y-29833634D01*
X38109304Y-29878942D01*
X38131949Y-29895160D01*
X38169505Y-29923213D01*
X38219830Y-29961429D01*
X38280782Y-30008136D01*
X38350220Y-30061660D01*
X38426003Y-30120330D01*
X38505989Y-30182474D01*
X38588037Y-30246420D01*
X38670005Y-30310494D01*
X38749752Y-30373026D01*
X38825136Y-30432342D01*
X38894016Y-30486770D01*
X38954251Y-30534638D01*
X39003698Y-30574274D01*
X39040217Y-30604005D01*
X39061667Y-30622160D01*
X39064965Y-30625219D01*
X39056958Y-30628078D01*
X39026664Y-30630292D01*
X38974365Y-30631856D01*
X38900340Y-30632766D01*
X38804872Y-30633019D01*
X38688243Y-30632612D01*
X38568254Y-30631703D01*
X38436142Y-30630381D01*
X38324403Y-30628856D01*
X38230834Y-30626880D01*
X38153228Y-30624205D01*
X38089383Y-30620581D01*
X38037092Y-30615760D01*
X37994153Y-30609493D01*
X37958360Y-30601531D01*
X37927509Y-30591626D01*
X37899395Y-30579530D01*
X37871814Y-30564992D01*
X37846775Y-30550310D01*
X37783676Y-30512313D01*
X37783676Y-31572196D01*
X37841520Y-31532406D01*
X37857288Y-31521235D01*
X37871250Y-31511165D01*
X37884593Y-31502137D01*
X37898502Y-31494096D01*
X37914165Y-31486985D01*
X37932767Y-31480746D01*
X37955495Y-31475324D01*
X37983536Y-31470661D01*
X38018076Y-31466700D01*
X38060301Y-31463384D01*
X38111398Y-31460658D01*
X38172553Y-31458463D01*
X38244953Y-31456744D01*
X38329784Y-31455443D01*
X38428231Y-31454504D01*
X38541483Y-31453869D01*
X38670725Y-31453483D01*
X38817143Y-31453287D01*
X38981925Y-31453226D01*
X39166256Y-31453242D01*
X39371322Y-31453279D01*
X39493942Y-31453288D01*
X39710891Y-31453264D01*
X39906451Y-31453230D01*
X40081808Y-31453242D01*
X40238150Y-31453357D01*
X40376666Y-31453629D01*
X40498543Y-31454117D01*
X40604969Y-31454875D01*
X40697131Y-31455961D01*
X40776218Y-31457430D01*
X40843417Y-31459339D01*
X40899916Y-31461743D01*
X40946902Y-31464700D01*
X40985564Y-31468265D01*
X41017089Y-31472494D01*
X41042664Y-31477445D01*
X41063479Y-31483172D01*
X41080720Y-31489732D01*
X41095574Y-31497182D01*
X41109231Y-31505578D01*
X41122878Y-31514975D01*
X41137702Y-31525431D01*
X41146592Y-31531522D01*
X41204209Y-31570295D01*
X41204209Y-31038731D01*
X41204174Y-30915482D01*
X41204024Y-30812986D01*
X41203687Y-30729419D01*
X41203095Y-30662955D01*
X41202176Y-30611770D01*
X41200860Y-30574040D01*
X41199078Y-30547939D01*
X41196760Y-30531643D01*
X41193835Y-30523327D01*
X41190233Y-30521167D01*
X41185884Y-30523338D01*
X41184454Y-30524534D01*
X41147382Y-30549684D01*
X41094581Y-30575582D01*
X41032579Y-30599191D01*
X41006166Y-30607460D01*
X40988225Y-30612077D01*
X40967164Y-30615978D01*
X40940898Y-30619247D01*
X40907341Y-30621965D01*
X40864408Y-30624214D01*
X40810013Y-30626076D01*
X40742071Y-30627635D01*
X40658497Y-30628971D01*
X40557204Y-30630168D01*
X40436109Y-30631307D01*
X40391409Y-30631684D01*
X40266258Y-30632701D01*
X40161891Y-30633459D01*
X40076516Y-30633902D01*
X40008342Y-30633969D01*
X39955574Y-30633604D01*
X39916423Y-30632747D01*
X39889094Y-30631340D01*
X39871795Y-30629324D01*
X39862735Y-30626642D01*
X39860121Y-30623235D01*
X39862160Y-30619043D01*
X39866476Y-30614570D01*
X39879411Y-30604215D01*
X39908485Y-30582157D01*
X39951568Y-30549956D01*
X40006527Y-30509173D01*
X40071232Y-30461369D01*
X40143551Y-30408104D01*
X40221353Y-30350939D01*
X40302507Y-30291436D01*
X40384881Y-30231154D01*
X40466345Y-30171654D01*
X40544766Y-30114497D01*
X40618013Y-30061244D01*
X40683956Y-30013456D01*
X40740463Y-29972692D01*
X40785402Y-29940515D01*
X40816643Y-29918484D01*
X40823275Y-29913916D01*
X40860178Y-29890995D01*
X40908168Y-29864187D01*
X40957706Y-29838788D01*
X40964386Y-29835567D01*
X41012581Y-29813889D01*
X41050143Y-29801303D01*
X41085969Y-29795573D01*
X41128009Y-29794455D01*
X41204209Y-29795089D01*
X41204209Y-28640650D01*
X41110478Y-28731814D01*
X41060584Y-28778611D01*
X41004104Y-28828898D01*
X40949835Y-28874943D01*
X40924482Y-28895368D01*
X40884937Y-28925806D01*
X40831725Y-28965861D01*
X40766476Y-29014360D01*
X40690820Y-29070134D01*
X40606386Y-29132010D01*
X40514803Y-29198818D01*
X40417701Y-29269386D01*
X40316710Y-29342544D01*
X40213459Y-29417120D01*
X40109577Y-29491943D01*
X40006694Y-29565842D01*
X39906440Y-29637645D01*
X39810445Y-29706183D01*
X39720336Y-29770283D01*
X39637745Y-29828774D01*
X39564301Y-29880485D01*
X39501633Y-29924246D01*
X39451370Y-29958884D01*
X39415143Y-29983229D01*
X39394580Y-29996110D01*
X39390477Y-29997868D01*
X39379151Y-29989909D01*
X39351971Y-29969114D01*
X39310638Y-29936846D01*
X39256853Y-29894469D01*
X39192315Y-29843346D01*
X39118727Y-29784840D01*
X39037787Y-29720313D01*
X38951197Y-29651130D01*
X38860657Y-29578652D01*
X38767869Y-29504245D01*
X38693511Y-29444516D01*
X38674531Y-29429269D01*
X38582346Y-29355089D01*
X38493013Y-29283068D01*
X38408233Y-29214568D01*
X38329707Y-29150954D01*
X38259135Y-29093587D01*
X38198218Y-29043832D01*
X38148656Y-29003051D01*
X38127987Y-28985887D01*
X38027325Y-28899595D01*
X37944068Y-28822996D01*
X37876247Y-28754182D01*
X37821898Y-28691247D01*
X37814531Y-28681866D01*
X37783926Y-28642355D01*
X37783676Y-29774115D01*
X37174076Y-29774115D01*
X37174076Y-28546399D01*
X37270863Y-28546399D01*
X37384802Y-28535534D01*
X37492425Y-28503917D01*
X37591424Y-28453014D01*
X37679493Y-28384292D01*
X37754325Y-28299218D01*
X37812193Y-28202231D01*
X37851814Y-28095963D01*
X37870382Y-27988949D01*
X37869243Y-27883299D01*
X37849739Y-27781124D01*
X37813215Y-27684533D01*
X37761014Y-27595637D01*
X37716058Y-27542194D01*
X38686787Y-27542194D01*
X38686787Y-27987852D01*
X38686951Y-28085669D01*
X38687420Y-28176063D01*
X38688156Y-28256629D01*
X38689125Y-28324961D01*
X38690289Y-28378655D01*
X38691612Y-28415304D01*
X38693058Y-28432503D01*
X38693511Y-28433510D01*
X38706468Y-28427601D01*
X38728717Y-28413271D01*
X38730200Y-28412224D01*
X38760353Y-28393437D01*
X38797184Y-28373790D01*
X38805320Y-28369891D01*
X38813749Y-28366355D01*
X38823868Y-28363229D01*
X38837069Y-28360485D01*
X38854747Y-28358091D01*
X38878293Y-28356018D01*
X38909102Y-28354234D01*
X38948566Y-28352711D01*
X38998078Y-28351418D01*
X39059032Y-28350325D01*
X39132820Y-28349402D01*
X39220837Y-28348618D01*
X39324474Y-28347944D01*
X39445125Y-28347349D01*
X39584183Y-28346804D01*
X39743041Y-28346278D01*
X39921898Y-28345744D01*
X40107016Y-28345205D01*
X40270954Y-28344771D01*
X40415112Y-28344508D01*
X40540888Y-28344483D01*
X40649680Y-28344764D01*
X40742886Y-28345418D01*
X40821906Y-28346513D01*
X40888137Y-28348117D01*
X40942979Y-28350296D01*
X40987830Y-28353118D01*
X41024087Y-28356650D01*
X41053150Y-28360960D01*
X41076418Y-28366116D01*
X41095288Y-28372184D01*
X41111160Y-28379232D01*
X41125431Y-28387328D01*
X41139500Y-28396539D01*
X41151967Y-28405039D01*
X41178261Y-28422175D01*
X41195846Y-28432321D01*
X41199066Y-28433510D01*
X41200143Y-28422603D01*
X41201144Y-28391410D01*
X41202044Y-28342222D01*
X41202819Y-28277332D01*
X41203446Y-28199029D01*
X41203900Y-28109606D01*
X41204158Y-28011355D01*
X41204209Y-27942444D01*
X41203989Y-27837451D01*
X41203357Y-27740609D01*
X41202358Y-27654106D01*
X41201036Y-27580131D01*
X41199435Y-27520873D01*
X41197600Y-27478519D01*
X41195574Y-27455259D01*
X41194302Y-27451377D01*
X41179400Y-27459075D01*
X41171369Y-27467073D01*
X41154243Y-27480245D01*
X41123992Y-27497484D01*
X41099431Y-27509406D01*
X41040520Y-27536044D01*
X39863654Y-27539119D01*
X38686787Y-27542194D01*
X37716058Y-27542194D01*
X37694482Y-27516545D01*
X37614961Y-27449368D01*
X37523796Y-27396216D01*
X37422332Y-27359198D01*
X37311911Y-27340426D01*
X37262015Y-27338488D01*
X37174076Y-27338488D01*
X37174076Y-27286559D01*
X37176920Y-27250252D01*
X37188720Y-27223354D01*
X37212458Y-27196248D01*
X37250840Y-27157866D01*
X39442411Y-27157866D01*
X39704548Y-27157875D01*
G37*
D12*
%TO.C,J2*%
X20562808Y-14667400D02*
G75*
G02*
X19800808Y-14667400I-381000J0D01*
G01*
X19800808Y-14667400D02*
G75*
G02*
X20562808Y-14667400I381000J0D01*
G01*
D13*
X15251007Y-16445400D02*
X15251007Y-32904600D01*
X15251007Y-32904600D02*
X17123625Y-32904600D01*
X20508808Y-32904600D02*
X20508808Y-30435540D01*
X20508808Y-16445400D02*
X19439993Y-16445400D01*
X20508808Y-18914460D02*
X20508808Y-16445400D01*
X17123625Y-16445400D02*
X15251007Y-16445400D01*
X19439993Y-32904600D02*
X20508808Y-32904600D01*
D12*
%TO.C,J1*%
X36071885Y-38007899D02*
G75*
G02*
X35309885Y-38007899I-381000J0D01*
G01*
X35309885Y-38007899D02*
G75*
G02*
X36071885Y-38007899I381000J0D01*
G01*
D13*
X43553709Y-36229899D02*
X43553709Y-14970099D01*
X43553709Y-14970099D02*
X36009909Y-14970099D01*
X36009909Y-14970099D02*
X36009909Y-16886257D01*
X36009909Y-36229899D02*
X43553709Y-36229899D01*
X36009909Y-34313741D02*
X36009909Y-36229899D01*
D14*
%TO.C,JP5*%
X27731809Y-40999999D02*
G75*
G02*
X27031809Y-41699999I-700000J0D01*
G01*
X27031809Y-39699999D02*
G75*
G02*
X27731809Y-40399999I0J-700000D01*
G01*
X25631809Y-41699999D02*
G75*
G02*
X24931809Y-40999999I-1J699999D01*
G01*
X24931809Y-40399999D02*
G75*
G02*
X25631809Y-39699999I699999J1D01*
G01*
X27731809Y-40399999D02*
X27731809Y-40999999D01*
X27031809Y-41699999D02*
X25631809Y-41699999D01*
X25631809Y-39699999D02*
X27031809Y-39699999D01*
X24931809Y-40999999D02*
X24931809Y-40399999D01*
%TO.C,JP3*%
X24931809Y-33999999D02*
X24931809Y-33399999D01*
X25631809Y-32699999D02*
X27031809Y-32699999D01*
X27031809Y-34699999D02*
X25631809Y-34699999D01*
X27731809Y-33399999D02*
X27731809Y-33999999D01*
X24931809Y-33399999D02*
G75*
G02*
X25631809Y-32699999I699999J1D01*
G01*
X25631809Y-34699999D02*
G75*
G02*
X24931809Y-33999999I-1J699999D01*
G01*
X27031809Y-32699999D02*
G75*
G02*
X27731809Y-33399999I0J-700000D01*
G01*
X27731809Y-33999999D02*
G75*
G02*
X27031809Y-34699999I-700000J0D01*
G01*
%TO.C,JP2*%
X24931809Y-30449999D02*
X24931809Y-29849999D01*
X25631809Y-29149999D02*
X27031809Y-29149999D01*
X27031809Y-31149999D02*
X25631809Y-31149999D01*
X27731809Y-29849999D02*
X27731809Y-30449999D01*
X24931809Y-29849999D02*
G75*
G02*
X25631809Y-29149999I699999J1D01*
G01*
X25631809Y-31149999D02*
G75*
G02*
X24931809Y-30449999I-1J699999D01*
G01*
X27031809Y-29149999D02*
G75*
G02*
X27731809Y-29849999I0J-700000D01*
G01*
X27731809Y-30449999D02*
G75*
G02*
X27031809Y-31149999I-700000J0D01*
G01*
%TO.C,JP1*%
X24931809Y-26899999D02*
X24931809Y-26299999D01*
X25631809Y-25599999D02*
X27031809Y-25599999D01*
X27031809Y-27599999D02*
X25631809Y-27599999D01*
X27731809Y-26299999D02*
X27731809Y-26899999D01*
X24931809Y-26299999D02*
G75*
G02*
X25631809Y-25599999I699999J1D01*
G01*
X25631809Y-27599999D02*
G75*
G02*
X24931809Y-26899999I-1J699999D01*
G01*
X27031809Y-25599999D02*
G75*
G02*
X27731809Y-26299999I0J-700000D01*
G01*
X27731809Y-26899999D02*
G75*
G02*
X27031809Y-27599999I-700000J0D01*
G01*
%TO.C,JP4*%
X24931809Y-37549999D02*
X24931809Y-36949999D01*
X25631809Y-36249999D02*
X27031809Y-36249999D01*
X27031809Y-38249999D02*
X25631809Y-38249999D01*
X27731809Y-36949999D02*
X27731809Y-37549999D01*
X24931809Y-36949999D02*
G75*
G02*
X25631809Y-36249999I699999J1D01*
G01*
X25631809Y-38249999D02*
G75*
G02*
X24931809Y-37549999I-1J699999D01*
G01*
X27031809Y-36249999D02*
G75*
G02*
X27731809Y-36949999I0J-700000D01*
G01*
X27731809Y-37549999D02*
G75*
G02*
X27031809Y-38249999I-700000J0D01*
G01*
%TO.C,J3*%
X29851809Y-40680000D02*
X29851809Y-27920000D01*
X32511809Y-27920000D02*
X29851809Y-27920000D01*
X32511809Y-40680000D02*
X29851809Y-40680000D01*
X32511809Y-40680000D02*
X32511809Y-27920000D01*
X32511809Y-41950000D02*
X32511809Y-43280000D01*
X32511809Y-43280000D02*
X31181809Y-43280000D01*
%TD*%
M02*
